<?xml version="1.0" encoding="utf-8"?><svg viewBox="0 0 250 300" xmlns="http://www.w3.org/2000/svg" xmlns:xlink="http://www.w3.org/1999/xlink"><style>:root>svg{display:none}:root>svg:target{display:block}</style><svg fill="none" viewBox="0 0 60 60" id="1" xmlns="http://www.w3.org/2000/svg"><circle cx="30" cy="30" r="30" fill="#FAE3E3"/><path d="M21.188 23.6H16.69c-.449 0-.879.177-1.196.493A1.682 1.682 0 0015 25.285v16.03c0 .447.178.876.495 1.192.317.316.747.493 1.196.493H43.31c.448 0 .878-.178 1.195-.493.317-.316.495-.745.495-1.192v-16.03c0-.447-.178-.876-.495-1.192a1.694 1.694 0 00-1.196-.493h-4.298m-7.543 9.553v1.921a.34.34 0 01-.341.342h-2.054a.342.342 0 01-.342-.34v-1.922m7.5-3.64v.71a.34.34 0 01-.343.34h-1.033m-1.218-10.39a3.518 3.518 0 00-1.103-2.564 3.543 3.543 0 00-2.625-.965 3.681 3.681 0 00-2.412 1.206 3.658 3.658 0 00-.936 2.523v3.274a3.52 3.52 0 001.035 2.496 3.541 3.541 0 005.006 0 3.523 3.523 0 001.035-2.496h-3.538m-7.81 13.89H37.91c.19 0 .343.152.343.34v2.016a.342.342 0 01-.343.341H22.289a.342.342 0 01-.343-.341v-2.015c0-.189.153-.341.342-.341zm-2.74-4.851h2.054c.189 0 .342.152.342.34v2.047a.342.342 0 01-.342.342h-2.054a.342.342 0 01-.342-.342v-2.046c0-.189.153-.341.342-.341zm4.762 0h2.053c.19 0 .343.152.343.34v2.047a.342.342 0 01-.343.342h-2.053a.342.342 0 01-.343-.342v-2.046c0-.189.154-.341.343-.341zm9.522 0h2.054c.189 0 .342.152.342.34v2.047a.342.342 0 01-.342.342h-2.054a.342.342 0 01-.342-.342v-2.046c0-.189.153-.341.342-.341zm4.762 0h2.053c.19 0 .343.152.343.34v2.047a.342.342 0 01-.343.342h-2.053a.342.342 0 01-.343-.342v-2.046c0-.189.154-.341.343-.341zm-19.046-4.852h2.054c.189 0 .342.153.342.342v2.046a.342.342 0 01-.342.342h-2.054a.342.342 0 01-.342-.342v-2.046c0-.189.153-.342.342-.342zm5.794 2.73H24.31a.342.342 0 01-.342-.342v-.71l1.375 1.052zm13.252-2.73h2.053c.19 0 .343.153.343.342v2.046a.342.342 0 01-.343.342h-2.053a.342.342 0 01-.343-.342v-2.046c0-.189.154-.342.343-.342zm-.255.066L30.1 34.2 21.857 27.9a1.708 1.708 0 01-.67-1.354V14.365c0-.362.144-.71.4-.965.257-.256.605-.4.968-.4h15.085c.363 0 .711.144.968.4s.4.603.4.965v12.182a1.7 1.7 0 01-.669 1.354z" stroke="#D82928" stroke-linecap="round" stroke-linejoin="round"/></svg><svg fill="none" viewBox="0 0 60 60" id="10" xmlns="http://www.w3.org/2000/svg"><circle cx="30" cy="30" r="30" fill="#FFFAE9"/><path d="M44 27.144v7.052h-.343v-6.042l-1.52.923-2.324 1.413-.481.292v6.055c-.002.259-.068.51-.19.732-.12.22-.291.4-.493.526l-7.95 4.73a1.342 1.342 0 01-1.32 0l-7.949-4.73a1.443 1.443 0 01-.493-.526 1.539 1.539 0 01-.19-.732v-6l-.484-.291-3.596-2.165a1.386 1.386 0 01-.484-.512 1.479 1.479 0 010-1.428c.119-.215.287-.391.487-.513l12.65-7.738a1.325 1.325 0 011.363 0l.003.002 12.63 7.736.006.004.008.005c.199.117.368.289.487.501.12.213.183.456.183.706zM38.518 37.68l.492-.292-.003-.572-.019-4.044-.008-1.78-1.516.933-6.777 4.174a1.36 1.36 0 01-1.37 0l-6.703-4.117-1.523-.935v6.36l.485.29 7.912 4.742.512.306.513-.305 8.005-4.76z" stroke="#FFC700" stroke-width="2"/></svg><svg fill="none" viewBox="0 0 60 60" id="11" xmlns="http://www.w3.org/2000/svg"><circle cx="30" cy="30" r="30" fill="#DEEAFF"/><path d="M27.29 17.578L15 19.194v10.22h12.29V17.577zM15 40.866l12.29 1.749V30.587H15v10.279zM28.646 30.74l.049 11.958L45 45V30.74H28.646zM45 15l-16.256 2.332V29.36H45V15z" fill="#699BF7"/></svg><svg fill="none" viewBox="0 0 60 60" id="12" xmlns="http://www.w3.org/2000/svg"><circle cx="30" cy="30" r="30" fill="#EBFFF4"/><path d="M23.522 27.589L22.706 30h-2.081l3.491-9.375h2.408L30 30h-2.188l-.816-2.411h-3.474zm3.064-1.38l-1.273-3.791h-.092l-1.273 3.79h2.64-.002z" fill="#0FA958"/><path d="M15 18.75A3.75 3.75 0 0118.75 15h13.125a3.75 3.75 0 013.75 3.75v5.625h5.625a3.75 3.75 0 013.75 3.75V41.25A3.75 3.75 0 0141.25 45H28.125a3.75 3.75 0 01-3.75-3.75v-5.625H18.75a3.75 3.75 0 01-3.75-3.75V18.75zm3.75-1.875a1.875 1.875 0 00-1.875 1.875v13.125a1.875 1.875 0 001.875 1.875h13.125a1.875 1.875 0 001.875-1.875V18.75a1.875 1.875 0 00-1.875-1.875H18.75zm13.384 18.74c.362.565.754 1.094 1.181 1.587-1.402 1.078-3.137 1.877-5.19 2.422.334.407.846 1.191 1.04 1.626 2.11-.673 3.9-1.583 5.412-2.801 1.457 1.247 3.26 2.184 5.494 2.76.249-.477.776-1.262 1.179-1.669-2.11-.474-3.857-1.301-5.288-2.407 1.277-1.401 2.292-3.096 3.04-5.17h2.248V30h-5.625v1.963h1.434c-.596 1.583-1.387 2.899-2.385 3.994a11.392 11.392 0 01-.778-.923c-.529.34-1.135.54-1.762.582z" fill="#0FA958"/></svg><svg fill="none" viewBox="0 0 60 60" id="2" xmlns="http://www.w3.org/2000/svg"><circle cx="30" cy="30" r="30" fill="#E6F8ED"/><path d="M30 45c8.284 0 15-6.716 15-15 0-8.284-6.716-15-15-15-8.284 0-15 6.716-15 15 0 8.284 6.716 15 15 15zM15 30h30z" fill="#E6F8ED"/><path d="M30 45c3.314 0 6-6.716 6-15 0-8.284-2.686-15-6-15s-6 6.716-6 15c0 8.284 2.686 15 6 15z" fill="#E6F8ED"/><path d="M19.393 19.607A14.953 14.953 0 0030 24c4.142 0 7.892-1.679 10.607-4.393M40.607 40.393A14.953 14.953 0 0030 36a14.953 14.953 0 00-10.607 4.393" fill="#E6F8ED"/><path d="M30 45c8.284 0 15-6.716 15-15M30 45c-8.284 0-15-6.716-15-15m15 15c3.314 0 6-6.716 6-15 0-8.284-2.686-15-6-15m0 30c-3.314 0-6-6.716-6-15 0-8.284 2.686-15 6-15m15 15c0-8.284-6.716-15-15-15m15 15H15m15-15c-8.284 0-15 6.716-15 15m4.393-10.393A14.953 14.953 0 0030 24c4.142 0 7.892-1.679 10.607-4.393m0 20.786A14.953 14.953 0 0030 36a14.953 14.953 0 00-10.607 4.393" stroke="#57D283" stroke-width="2" stroke-linecap="round" stroke-linejoin="round"/></svg><svg fill="none" viewBox="0 0 60 60" id="3" xmlns="http://www.w3.org/2000/svg"><circle cx="30" cy="30" r="30" fill="#E3EAFA"/><g clip-path="url(#afclip0_416_66)"><path d="M33.547 37.218h-7.18c.168 0 .303 1.646.303 3.674s-.135 3.674-.302 3.674h7.18c-.167 0-.303-1.646-.303-3.674.001-2.028.136-3.674.303-3.674z" fill="#BFBEBE"/><path d="M28.882 37.218h-2.514c.168 0 .302 1.646.302 3.674s-.134 3.674-.302 3.674h2.514c.167 0 .302-1.646.302-3.674s-.135-3.674-.302-3.674z" fill="#AEAEAE"/><path d="M24.777 45h-.137c-.195 0-.353-.268-.353-.597 0-.33.158-.597.353-.597h3.808-.001 6.694c.195-.001.353.267.353.597 0 .33-.158.597-.353.597H24.777z" fill="#C6C5C5"/><path d="M44.899 37.176c0 1.898-1.43 3.434-3.19 3.434H18.21c-1.762 0-3.192-1.536-3.192-3.434v-17.4c0-1.893 1.43-3.431 3.192-3.431h23.498c1.761 0 3.19 1.536 3.19 3.431v17.4z" fill="#D1D2D2"/><path d="M21.06 37.176v-17.4c0-1.893 1.43-3.431 3.192-3.431h-6.044c-1.762 0-3.192 1.536-3.192 3.431v17.4c0 1.898 1.43 3.434 3.192 3.434h6.044c-1.762 0-3.191-1.537-3.191-3.434" fill="#C6C5C5"/><path d="M44.899 32.316c0 1.894-1.43 3.431-3.19 3.431H18.21c-1.762 0-3.192-1.536-3.192-3.431V19.764c0-1.897 1.43-3.434 3.192-3.434h23.498c1.761 0 3.19 1.537 3.19 3.434v12.552z" fill="#243438"/><path d="M15.017 31.43h29.882v5.328H15.017v-5.329z" fill="#243438"/><path d="M42.54 17.927H17.375c-.207 0-.38.115-.38.253v16.355c0 .139.173.253.38.253H42.54a.458.458 0 00.261-.066l.01-.01s.007-.005.009-.01a.192.192 0 00.105-.167V18.183c-.002-.138-.177-.253-.385-.253" fill="#58C5E8"/><path d="M30.327 28.856c4.208 2.52 8.318 4.237 12.595 5.275V18.18c0-.138-.175-.253-.383-.253H19.45c2.371 4.47 6.453 8.278 10.88 10.929h-.002zm.034 2.677c-5.076-2.766-10.16-6.596-13.365-11.325v14.327c0 .139.173.253.38.253h20.538a43.721 43.721 0 01-7.552-3.253" fill="#457BF4"/><path d="M31.092 37.788c-.046-.044-.113-.057-.204-.03l-.527.134c-.164.045-.247.153-.247.327l-.001.563c0 .082.018.142.054.177a.156.156 0 00.117.044c.028 0 .055-.007.088-.013l.526-.134c.164-.044.248-.153.25-.33v-.56c-.002-.084-.02-.143-.056-.178zm-.28.64c0 .063-.028.102-.088.118l-.186.049a.2.2 0 01-.031.004.065.065 0 01-.042-.015c-.013-.012-.02-.034-.018-.066v-.2c0-.062.029-.1.087-.116l.19-.05c.032-.007.056-.003.07.011.014.013.02.034.02.064v.202h-.001zm-1.009-.211c0-.174-.082-.283-.247-.327l-.526-.135c-.091-.026-.159-.012-.202.03-.039.035-.057.095-.057.177l.002.56c.002.177.084.287.247.33l.528.135c.031.009.06.012.086.012a.154.154 0 00.116-.044c.037-.034.055-.094.055-.176l-.002-.562zm-.35.365c-.009.01-.023.014-.041.014l-.031-.004-.188-.048c-.058-.017-.089-.055-.089-.117v-.203c0-.029.008-.05.02-.063.015-.015.038-.019.073-.011l.187.049c.058.016.09.054.09.116v.202c0 .03 0 .051-.02.065zm.72 1.078c.01 0 .018-.002.031-.006l.188-.048c.058-.014.088-.054.088-.118v-.2a.11.11 0 00-.018-.065c-.016-.016-.042-.017-.072-.01l-.19.049c-.058.014-.087.054-.087.118l-.002.201c0 .03.007.049.02.061.01.013.024.018.042.018zm-.428 0a.097.097 0 01-.033-.006l-.187-.048c-.058-.014-.088-.054-.088-.118l-.002-.2c0-.03.008-.05.02-.065.015-.016.04-.017.071-.01l.191.049c.057.014.088.054.088.118v.201c0 .03-.007.049-.018.061a.053.053 0 01-.042.018z" fill="#243438"/></g><defs><clipPath id="afclip0_416_66"><path fill="#fff" transform="translate(15 15)" d="M0 0h30v30H0z"/></clipPath></defs></svg><svg fill="none" viewBox="0 0 60 60" id="4" xmlns="http://www.w3.org/2000/svg"><circle cx="30" cy="30" r="30" fill="#FFFAE8"/><path d="M21.188 23.6H16.69c-.449 0-.879.177-1.196.493A1.682 1.682 0 0015 25.285v16.03c0 .447.178.876.495 1.192.317.316.747.493 1.196.493H43.31c.448 0 .878-.178 1.195-.493.317-.316.495-.745.495-1.192v-16.03c0-.447-.178-.876-.495-1.192a1.694 1.694 0 00-1.196-.493h-4.298m-7.543 9.553v1.921a.34.34 0 01-.341.342h-2.054a.342.342 0 01-.342-.34v-1.922m7.5-3.64v.71a.34.34 0 01-.343.34h-1.033m-8.149-4.538a2.956 2.956 0 002.593 1.154h1.566c.7 0 1.372-.279 1.866-.773a2.628 2.628 0 000-3.724 2.646 2.646 0 00-1.866-.773h-1.73c-.7 0-1.372-.279-1.866-.773a2.628 2.628 0 010-3.724 2.646 2.646 0 011.866-.773h1.566a2.967 2.967 0 012.593 1.155M22.289 37.538H37.91c.19 0 .343.152.343.34v2.016a.342.342 0 01-.343.341H22.289a.342.342 0 01-.343-.341v-2.015c0-.189.153-.341.342-.341zm-2.74-4.851h2.054c.189 0 .342.152.342.34v2.047a.342.342 0 01-.342.342h-2.054a.342.342 0 01-.342-.342v-2.046c0-.189.153-.341.342-.341zm4.762 0h2.053c.19 0 .343.152.343.34v2.047a.342.342 0 01-.343.342h-2.053a.342.342 0 01-.343-.342v-2.046c0-.189.154-.341.343-.341zm9.522 0h2.054c.189 0 .342.152.342.34v2.047a.342.342 0 01-.342.342h-2.054a.342.342 0 01-.342-.342v-2.046c0-.189.153-.341.342-.341zm4.762 0h2.053c.19 0 .343.152.343.34v2.047a.342.342 0 01-.343.342h-2.053a.342.342 0 01-.343-.342v-2.046c0-.189.154-.341.343-.341zm-19.046-4.852h2.054c.189 0 .342.153.342.342v2.046a.342.342 0 01-.342.342h-2.054a.342.342 0 01-.342-.342v-2.046c0-.189.153-.342.342-.342zm5.794 2.73H24.31a.342.342 0 01-.342-.342v-.71l1.375 1.052zm13.252-2.73h2.053c.19 0 .343.153.343.342v2.046a.342.342 0 01-.343.342h-2.053a.342.342 0 01-.343-.342v-2.046c0-.189.154-.342.343-.342zm-.255.066L30.1 34.2 21.857 27.9a1.708 1.708 0 01-.67-1.354V14.365c0-.362.144-.71.4-.965.257-.256.605-.4.968-.4h15.085c.363 0 .711.144.968.4s.4.603.4.965v12.182a1.7 1.7 0 01-.669 1.354z" stroke="#FFC700" stroke-linecap="round" stroke-linejoin="round"/></svg><svg fill="none" viewBox="0 0 60 60" id="5" xmlns="http://www.w3.org/2000/svg"><circle cx="30" cy="30" r="30" fill="#F3EAFF"/><path d="M15.858 44.143A20 20 0 0130.001 10m14.142 5.857A20 20 0 0130.001 50m-4.234-23.796l3.244 6.487m-3.244-6.487l7.568-7.568 6.486 12.974-10.81 1.081m-3.244-6.487l-4.324 2.162c-1.3.65-1.19 3.026-.54 4.325.649 1.3 2.484 2.812 3.784 2.162l4.324-2.162m-.956.552l2.703 5.405-2.162 1.081-2.703-5.405m18.432-19.73a3.243 3.243 0 11-6.486 0 3.243 3.243 0 016.486 0zM22.163 45.406a3.243 3.243 0 11-6.486 0 3.243 3.243 0 016.486 0z" stroke="#9747FF" stroke-linecap="round" stroke-linejoin="round"/></svg><svg fill="none" viewBox="0 0 60 60" id="6" xmlns="http://www.w3.org/2000/svg"><circle cx="30" cy="30" r="30" fill="#FFF3EC"/><path d="M21.429 21.429a2.143 2.143 0 00-2.143 2.142v4.286A2.143 2.143 0 0021.429 30h6.428A2.143 2.143 0 0030 27.857v-4.286a2.143 2.143 0 00-2.143-2.142H21.43zm0 2.142h6.428v4.286H21.43v-4.286zm-2.143 9.643a1.071 1.071 0 011.071-1.071h8.572a1.071 1.071 0 110 2.143h-8.572a1.072 1.072 0 01-1.071-1.072zm1.071 3.215a1.072 1.072 0 000 2.142h8.572a1.072 1.072 0 000-2.142h-8.572z" fill="#FF9A62"/><path d="M15 21.429A6.429 6.429 0 0121.429 15H38.57A6.429 6.429 0 0145 21.429V38.57A6.429 6.429 0 0138.571 45H21.43A6.429 6.429 0 0115 38.571V21.43zm17.143 21.428V17.143H21.429a4.286 4.286 0 00-4.286 4.286V38.57a4.286 4.286 0 004.286 4.286h10.714zm6.428 0a4.286 4.286 0 004.286-4.286V36.43h-8.571v6.428h4.285zm4.286-19.286V21.43a4.286 4.286 0 00-4.286-4.286h-4.285v6.428h8.571zm0 10.715v-8.572h-8.571v8.572h8.571z" fill="#FF9A62"/></svg><svg fill="none" viewBox="0 0 60 60" id="7" xmlns="http://www.w3.org/2000/svg"><circle cx="30" cy="30" r="30" fill="#FFE0D7"/><path d="M39.545 23c-1.5 0-2.727 1.26-2.727 2.8v2.8c0 1.54 1.227 2.8 2.727 2.8h2.728v2.8h-5.455V37h5.455c1.5 0 2.727-1.26 2.727-2.8v-2.8c0-1.54-1.227-2.8-2.727-2.8h-2.728v-2.8H45V23h-5.455zM25.91 23v14h5.454c1.5 0 2.727-1.26 2.727-2.8v-8.4c0-1.54-1.227-2.8-2.727-2.8h-5.455zm2.726 2.8h2.728v8.4h-2.728v-8.4zM17.727 23C16.227 23 15 24.26 15 25.8V37h2.727v-5.6h2.727V37h2.728V25.8c0-1.54-1.227-2.8-2.727-2.8h-2.728zm0 2.8h2.727v2.8h-2.727v-2.8z" fill="#F24E1E"/></svg><svg fill="none" viewBox="0 0 60 60" id="8" xmlns="http://www.w3.org/2000/svg"><circle cx="30" cy="30" r="30" fill="#EDFFF5"/><path d="M40.714 15H45v4.286h-4.286V15zm0 6.429H45v4.285h-4.286V21.43zM34.286 15h4.285v4.286h-4.285V15zm0 6.429h4.285v4.285h-4.285V21.43z" fill="#0FA958"/><path d="M42.857 30v6.429H17.143V19.286H30v-2.143H17.143A2.143 2.143 0 0015 19.286v17.143a2.143 2.143 0 002.143 2.142h8.571v4.286H21.43V45H38.57v-2.143h-4.285v-4.286h8.571A2.143 2.143 0 0045 36.43V30h-2.143z" fill="#0FA958"/><path d="M32.143 42.857h-4.286v-4.286h4.286v4.286z" fill="#0FA958"/></svg><svg fill="none" viewBox="0 0 60 60" id="9" xmlns="http://www.w3.org/2000/svg"><circle cx="30" cy="30" r="30" fill="#E1ECFF"/><path d="M24.167 31.333c1.38 0 2.5-1.492 2.5-3.333 0-1.841-1.12-3.334-2.5-3.334-1.381 0-2.5 1.493-2.5 3.334 0 1.84 1.119 3.333 2.5 3.333zM35.833 31.333c1.381 0 2.5-1.492 2.5-3.333 0-1.841-1.119-3.334-2.5-3.334-1.38 0-2.5 1.493-2.5 3.334 0 1.84 1.12 3.333 2.5 3.333zM23.333 34.666h13.334V38H23.333v-3.334z" fill="#699BF7"/><path d="M44 26.29v.91l.905.086c.168.016.322.053.443.12.101.056.2.142.274.32.039.096.055.2.047.303l-.002.037v3.268A.667.667 0 0145 32h-1v9.334a2.337 2.337 0 01-2.333 2.333H18.333A2.337 2.337 0 0116 41.333V32h-1.017a.667.667 0 01-.666-.666V28s0 0 0 0 0 0 0 0a.666.666 0 01.618-.665h.001l.137-.01.927-.068V21.334A2.337 2.337 0 0118.333 19h11v-3.762l-.331-.298a1.48 1.48 0 01-.502-1.106 1.5 1.5 0 113 0c0 .433-.19.825-.502 1.106l-.331.298V19h11A2.337 2.337 0 0144 21.334v4.956z" stroke="#699BF7" stroke-width="2"/></svg><svg viewBox="0 0 70 70" id="arr" xmlns="http://www.w3.org/2000/svg"><path d="M55 35c0 11.046-8.954 20-20 20s-20-8.954-20-20 8.954-20 20-20 20 8.954 20 20z" fill="#fff"/><path d="M70 35a35 35 0 11-70 0 35 35 0 0170 0zM37.187 19.687a2.188 2.188 0 00-4.374 0v25.345l-9.39-9.393a2.19 2.19 0 10-3.097 3.097l13.125 13.125a2.188 2.188 0 003.098 0l13.125-13.125a2.19 2.19 0 10-3.098-3.097l-9.389 9.393V19.688z"/></svg><svg viewBox="0 0 50 50" id="arr_next" xmlns="http://www.w3.org/2000/svg"><path d="M25 10c8.284 0 15 6.716 15 15 0 8.284-6.716 15-15 15-8.284 0-15-6.716-15-15 0-8.284 6.716-15 15-15z" fill="#fff"/><path d="M25 0a25 25 0 110 50 25 25 0 010-50zM14.062 23.438a1.563 1.563 0 000 3.125h18.104l-6.71 6.706a1.565 1.565 0 002.213 2.212l9.375-9.375a1.564 1.564 0 000-2.212l-9.375-9.375a1.565 1.565 0 00-2.213 2.212l6.71 6.706H14.063z"/></svg><svg viewBox="0 0 50 50" id="arr_prev" xmlns="http://www.w3.org/2000/svg"><path d="M25 40c-8.284 0-15-6.716-15-15 0-8.284 6.716-15 15-15 8.284 0 15 6.716 15 15 0 8.284-6.716 15-15 15z" fill="#fff"/><path d="M25 50a25 25 0 110-50 25 25 0 010 50zm10.938-23.438a1.563 1.563 0 000-3.125H17.834l6.71-6.706a1.565 1.565 0 00-2.213-2.212l-9.375 9.375a1.564 1.564 0 000 2.212l9.375 9.375a1.565 1.565 0 002.213-2.212l-6.71-6.706h18.104z"/></svg><svg viewBox="0 0 70 70" id="arr_up" xmlns="http://www.w3.org/2000/svg"><g clip-path="url(#apclip0_277_3)"><path d="M10 35c0-13.807 11.193-25 25-25s25 11.193 25 25-11.193 25-25 25-25-11.193-25-25z" fill="#fff"/><path d="M0 35a35 35 0 1170 0 35 35 0 01-70 0zm32.813 15.313a2.188 2.188 0 004.374 0V24.968l9.39 9.393a2.19 2.19 0 003.097-3.097L36.549 18.139a2.188 2.188 0 00-3.098 0L20.326 31.264a2.19 2.19 0 103.098 3.097l9.389-9.393v25.345z"/></g><defs><clipPath id="apclip0_277_3"><path fill="#fff" d="M0 0h70v70H0z"/></clipPath></defs></svg><svg viewBox="0 0 20 20" id="close" xmlns="http://www.w3.org/2000/svg"><path d="M17 10a7 7 0 11-14 0 7 7 0 0114 0z" fill="#fff"/><path d="M11.414 10l2.829-2.828a1 1 0 00-1.415-1.415L10 8.586 7.172 5.757a1 1 0 10-1.415 1.415L8.586 10l-2.829 2.828a1 1 0 101.415 1.415L10 11.414l2.828 2.829a1 1 0 101.415-1.415L11.414 10zM10 20C4.477 20 0 15.523 0 10S4.477 0 10 0s10 4.477 10 10-4.477 10-10 10z"/></svg><svg fill="none" viewBox="0 0 16 16" id="emptyStar" xmlns="http://www.w3.org/2000/svg"><g clip-path="url(#arclip0_318_8)"><path d="M2.866 14.85c-.078.444.36.791.746.593l4.39-2.256 4.39 2.256c.385.198.823-.149.745-.592l-.83-4.73 3.522-3.356c.33-.314.16-.888-.282-.95L10.65 5.12 8.465.792a.513.513 0 00-.927 0L5.354 5.12l-4.898.696c-.44.062-.612.636-.283.95l3.523 3.356-.83 4.73v-.002zm4.905-2.767l-3.686 1.894.694-3.957a.565.565 0 00-.163-.505L1.71 6.745l4.052-.576a.525.525 0 00.393-.288L8 2.223l1.847 3.658a.525.525 0 00.393.288l4.052.575-2.906 2.77a.565.565 0 00-.163.506l.694 3.957-3.686-1.894a.502.502 0 00-.46 0z" fill="#FFC700"/></g><defs><clipPath id="arclip0_318_8"><path fill="#fff" d="M0 0h16v16H0z"/></clipPath></defs></svg><svg fill="none" viewBox="0 0 30 20" id="eng" xmlns="http://www.w3.org/2000/svg"><g clip-path="url(#asclip0_30_14)"><path d="M30 0H0v20h30V0z" fill="#006"/><path d="M0 0v2.236L26.646 20h3.355v-2.236L3.354 0H0zm30 0v2.236L3.355 20H0v-2.236L26.646 0h3.355z" fill="#fff"/><path d="M12.5 0v20h5V0h-5zM0 6.667v6.667h30V6.667H0z" fill="#fff"/><path d="M0 8v4h30V8H0zm13.5-8v20h3V0h-3zM0 20l10-6.666h2.236L2.236 20H0zM0 0l10 6.667H7.764L0 1.49V0zm17.764 6.667l10-6.667h2.237L20 6.667h-2.237zM30.001 20l-10-6.666h2.235l7.765 5.176V20z" fill="#C00"/></g><defs><clipPath id="asclip0_30_14"><path fill="#fff" d="M0 0h30v20H0z"/></clipPath></defs></svg><svg fill="none" viewBox="0 0 250 300" id="file" xmlns="http://www.w3.org/2000/svg"><path d="M238.932 63.616c3.038 3.125 5.643 7.366 7.813 12.723 2.17 5.357 3.255 10.268 3.255 14.732V283.93c0 4.464-1.519 8.259-4.557 11.384-3.038 3.125-6.728 4.687-11.068 4.687H15.625c-4.34 0-8.03-1.562-11.068-4.687C1.52 292.188 0 288.393 0 283.929V16.071c0-4.464 1.52-8.259 4.557-11.384C7.595 1.563 11.285 0 15.625 0h145.833c4.341 0 9.115 1.116 14.323 3.348 5.209 2.232 9.332 4.91 12.37 8.036l50.781 52.232zm-72.265-40.848v62.946h61.198c-1.085-3.236-2.279-5.524-3.581-6.864l-50.944-52.4c-1.302-1.338-3.527-2.566-6.673-3.682zm62.5 255.803V107.143h-67.709c-4.34 0-8.029-1.563-11.067-4.688-3.039-3.125-4.558-6.92-4.558-11.384V21.43h-125V278.57h208.334zM62.5 133.929c0-1.563.488-2.846 1.465-3.851.976-1.004 2.224-1.507 3.743-1.507h114.584c1.519 0 2.767.503 3.743 1.507.977 1.005 1.465 2.288 1.465 3.851v10.714c0 1.562-.488 2.846-1.465 3.85-.976 1.005-2.224 1.507-3.743 1.507H67.708c-1.519 0-2.767-.502-3.743-1.507-.977-1.004-1.465-2.288-1.465-3.85v-10.714zm119.792 37.5c1.519 0 2.767.502 3.743 1.506.977 1.005 1.465 2.288 1.465 3.851V187.5c0 1.563-.488 2.846-1.465 3.85-.976 1.005-2.224 1.507-3.743 1.507H67.708c-1.519 0-2.767-.502-3.743-1.507-.977-1.004-1.465-2.287-1.465-3.85v-10.714c0-1.563.488-2.846 1.465-3.851.976-1.004 2.224-1.506 3.743-1.506h114.584zm0 42.857c1.519 0 2.767.502 3.743 1.506.977 1.005 1.465 2.288 1.465 3.851v10.714c0 1.563-.488 2.846-1.465 3.851-.976 1.004-2.224 1.506-3.743 1.506H67.708c-1.519 0-2.767-.502-3.743-1.506-.977-1.005-1.465-2.288-1.465-3.851v-10.714c0-1.563.488-2.846 1.465-3.851.976-1.004 2.224-1.506 3.743-1.506h114.584z" fill="#0FA958"/></svg><svg viewBox="0 0 230 242" id="flwr" xmlns="http://www.w3.org/2000/svg"><path fill-rule="evenodd" clip-rule="evenodd" d="M110.582 1.093c-6.361 2.85-18.238 16.375-23.62 26.898-2.575 5.033-4.68 9.825-4.68 10.65 0 .824 1.458 2.697 3.24 4.161 17.413 14.31 20.249 19.823 28.224 54.866.295 1.297.701 2.194.902 1.993.201-.201 1.549-5.747 2.995-12.323 4.767-21.676 9.673-30.793 22.274-41.393l7.118-5.987-2.287-6.294c-3.116-8.579-10.337-19.128-17.993-26.285-8.018-7.496-10.939-8.631-16.173-6.286zM.194 23.675c.392 1.038 2.389 5.027 4.438 8.863 5.436 10.178 7.537 17.457 8.908 30.866 1.089 10.651.804 31.27-.613 44.359-1.288 11.906-1.606 45.446-.515 54.357 3.412 27.855 15.514 47.444 33.453 54.152 17.885 6.687 35.414 3.82 47.715-7.806 9.439-8.921 12.784-18.689 14.699-42.921 2.567-32.489-3.804-70.226-15.668-92.787-9.656-18.363-23.842-32.252-41.704-40.834-13.555-6.51-23.095-8.87-38.689-9.567C.012 21.81-.489 21.867.194 23.675zm210.652-.058c-37.996 6.878-71.649 35.918-83.08 71.692-4.249 13.296-4.838 19.9-5.024 56.295-.192 37.48-.444 39.52-6.462 52.309-5.608 11.916-13.711 18.389-27.959 22.335-4.077 1.129-7.794 2.434-8.261 2.901-1.336 1.335 2.257 4.846 7.705 7.528 17.275 8.506 48.732 6.627 71.589-4.275 26.022-12.412 46.991-37.886 53.535-65.038 3.531-14.644 4.284-28.602 3.351-62.091-.472-16.989-.532-35.348-.132-40.799 1.155-15.764 4.734-27.544 11.895-39.16L230 22.076l-5.814.09c-3.198.048-9.201.702-13.34 1.451z"/></svg><svg fill="none" viewBox="0 0 138 30" id="logo" xmlns="http://www.w3.org/2000/svg"><path fill-rule="evenodd" clip-rule="evenodd" d="M120.493 14.085c0 .55.045.75.205.909.288.287.363 1.303.317 4.325-.038 2.454-.045 2.525-.285 2.78-.217.23-.243.353-.215.999l.032.737 1.504.03c2.053.043 1.986.069 1.986-.777 0-.592-.037-.726-.268-.956-.251-.25-.269-.339-.269-1.343v-1.075h.621c1.152 0 1.42.43 1.42 2.282 0 .67.053 1.37.118 1.555l.118.337h2.557v-.82c0-.61-.046-.872-.175-1.015-.123-.135-.197-.504-.249-1.239-.083-1.175-.162-1.376-.715-1.831l-.389-.32.254-.133c.703-.372 1.083-1.14 1.082-2.186 0-.974-.153-1.511-.574-2.02-.659-.795-.946-.857-4.202-.903l-2.873-.04v.704zm9.237.063c0 .416.047.749.105.749.058 0 .19.13.295.289.169.256.197.673.249 3.613.065 3.695.107 3.933.802 4.54.585.513 1.334.71 2.684.705 1.666-.005 2.448-.307 3.012-1.165.357-.543.408-1.006.47-4.272l.062-3.301.296-.253c.266-.228.295-.322.295-.954v-.7h-3.652v.653c0 .534.047.71.259.96.338.4.427 1.421.365 4.193-.058 2.616-.157 2.864-1.146 2.864-.991 0-1.118-.482-1.07-4.033.034-2.487.044-2.6.277-2.912.192-.26.241-.467.241-1.026v-.7h-3.544v.75zm-4.517 1.227c.516.266.71 1.244.375 1.89-.213.41-.732.629-1.493.629h-.595v-2.676h.704c.409 0 .831.066 1.009.157zm-8.21 5.951c-.7.205-1.251 1.098-1.084 1.758.039.158.258.486.486.73.392.418.447.442 1.004.434.942-.014 1.471-.541 1.472-1.467.001-.665-.251-1.088-.809-1.357-.478-.23-.585-.24-1.069-.098z" fill="#009846"/><path fill-rule="evenodd" clip-rule="evenodd" d="M13.768.143c-.473.204-1.65 1.338-2.222 2.139-.525.736-1.054 1.747-1.212 2.318l-.108.393.893.764c1.04.89 1.336 1.251 1.834 2.243.316.63.93 2.772 1.174 4.102.078.422.265.452.265.042 0-.337.703-3.151.928-3.719.431-1.083 1.135-1.948 2.387-2.933.299-.235.545-.492.547-.572.008-.267-.713-1.796-1.147-2.434-.59-.865-1.805-2.065-2.333-2.304-.52-.235-.55-.236-1.006-.04zM0 2.848c0 .047.28.637.624 1.312 1.096 2.157 1.402 4.65 1.041 8.505-.212 2.263-.267 3.246-.268 4.766-.001 2.184.124 3.252.554 4.737.346 1.193 1.028 2.516 1.649 3.2 2.34 2.573 6.641 2.525 8.62-.096.858-1.139 1.193-2.63 1.281-5.71.07-2.44-.056-3.953-.515-6.2-.65-3.174-1.746-5.364-3.637-7.259-2.146-2.15-5.178-3.34-8.514-3.34-.46 0-.835.039-.835.085zm26.582.075c-1.408.226-2.508.574-3.759 1.189-1.432.705-1.73.889-2.69 1.664-2.732 2.21-4.382 5.165-4.782 8.562-.09.763-.11 2.029-.065 4.054.036 1.619.02 3.413-.036 3.988-.313 3.247-1.824 5.213-4.415 5.745-.332.068-.685.183-.786.256-.428.313.606 1.013 2.107 1.427.82.227 3.67.262 4.599.057 2.73-.603 4.643-1.63 6.5-3.492 2.121-2.127 3.18-4.359 3.557-7.5.134-1.125.152-2.027.093-4.71-.117-5.35-.1-6.17.159-7.536.262-1.387.523-2.143 1.038-3.019.198-.337.36-.665.36-.729 0-.15-.783-.132-1.88.044zm10.066 3.239c-.042.103-.068.685-.057 1.294l.02 1.107.391.338c.352.305.4.413.486 1.088.127.99.127 9.12 0 9.994-.097.674-.405 1.191-.707 1.191-.178 0-.319 2.197-.166 2.597l.112.294 3.52-.002c3.998-.002 5.513-.098 6.905-.438.925-.227 1.005-.27 1.606-.867.708-.703 1.022-1.264 1.183-2.11.16-.84.13-2.742-.054-3.523-.233-.986-1.028-2.046-1.797-2.397-.343-.157-.384-.362-.091-.454.53-.168 1.075-.708 1.422-1.41.343-.694.357-.77.353-1.96-.003-.991-.05-1.368-.239-1.9-.397-1.119-1.125-2-1.901-2.3-1.618-.625-2.6-.725-7.12-.727-3.508-.002-3.794.011-3.866.185zm16.196 2.542l.314.178c.208.118.352.316.428.589.157.562.157 10.429 0 10.99-.076.273-.22.471-.428.59l-.314.177-.001 2.838 12.834-.055.029-3.204c.022-2.492-.002-3.223-.108-3.29-.074-.047-.963-.086-1.974-.087l-1.839-.002-.049 1.097c-.028.63-.114 1.233-.202 1.415-.331.687-1.258.98-2.838.894l-.644-.034-.058-4.55h3.656v-2.975l-3.652-.156V9.154l1.303.073c.717.04 1.405.128 1.529.194.556.296.905 1.051.919 1.986l.008.562h1.927c1.06 0 1.949-.036 1.975-.08.026-.044.022-1.393-.01-2.997l-.056-2.917h-12.75l.001 2.73zm16.029-2.65l-.886.036.001 1.2c.002 1.24.035 1.384.341 1.497.1.036.27.2.376.362.18.273.197.693.225 5.598.035 5.893.02 6.044-.634 6.38l-.316.163.06 2.721h11.815v-7.6l-3.686-.058-.037 1.581c-.032 1.389-.066 1.642-.283 2.08-.31.626-.78.84-1.854.84h-.754l.03-5.754c.034-6.193.023-6.075.594-6.334.245-.111.25-.141.22-1.426l-.03-1.312-2.148-.006a96.53 96.53 0 00-3.034.031zm13.076 1.3c0 1.264.017 1.383.204 1.432.112.03.293.19.403.356.187.284.199.63.199 5.824 0 5.046-.016 5.546-.185 5.804-.102.155-.283.312-.403.35-.204.065-.218.157-.218 1.508v1.438l12.728-.055v-6.53l-3.782-.058-.058 1.05c-.06 1.095-.228 1.663-.585 1.98-.288.255-1.248.416-2.257.378l-.837-.031-.058-4.55h3.764v-3.104h-3.76V9.153l1.249.071c1.333.076 1.79.218 2.11.657.202.277.4 1.133.4 1.728v.36h3.867V6.116l-3.302-.07c-1.817-.04-4.693-.071-6.391-.071h-3.088v1.379zm15.253 1.35l.314.178c.208.118.352.316.428.589.074.265.115 2.287.115 5.7v5.288l-.273.358c-.15.196-.344.357-.43.357-.128 0-.155.255-.155 1.447v1.447l5.853-.057.03-1.419c.03-1.41.028-1.42-.23-1.537-.579-.263-.763-1.167-.656-3.225.047-.898.08-2.5.074-3.56-.014-2.231.016-2.226.69.136.214.75.477 1.604.584 1.898.315.86.636 1.956.636 2.169 0 .108.041.242.091.299.05.055.177.487.283.958.268 1.192.314 1.23 1.468 1.23.744 0 .95-.032.95-.15 0-.083.22-.841.488-1.686.269-.844.589-1.872.712-2.285.123-.412.261-.845.307-.963.046-.118.314-.96.595-1.873.281-.913.527-1.679.546-1.702.093-.117.022 7.784-.074 8.138-.063.232-.245.51-.432.655l-.323.252.061 2.665h5.907l.06-2.732-.266-.101c-.147-.056-.354-.26-.46-.454-.177-.323-.196-.79-.224-5.695-.034-5.896-.035-5.88.63-6.222l.32-.165-.06-2.614L111.552 6c-2.054-.018-3.257.01-3.341.08-.072.06-.214.434-.316.831a282.387 282.387 0 01-1.407 5.165c-.145.5-.301 1.093-.346 1.317-.045.224-.13.398-.188.388-.059-.01-.213-.41-.342-.888a628.22 628.22 0 00-.786-2.85c-.303-1.09-.657-2.39-.787-2.89-.13-.501-.274-.97-.321-1.045-.066-.102-.846-.133-3.302-.133h-3.215v2.73zm-52.348.863c.61.455.726.722.733 1.698.01 1.527-.424 1.863-2.47 1.907l-1.283.028-.059-3.924 1.392.035c1.204.03 1.43.065 1.687.256zm-.343 6.786c.938.217 1.386.89 1.393 2.093.004.59-.051.863-.26 1.279-.403.801-.794.958-2.494 1.005l-1.37.038V16.25l1.155.002c.635.002 1.344.047 1.576.1z" fill="#E31E24"/></svg><svg fill="none" viewBox="0 0 40 40" id="mail" xmlns="http://www.w3.org/2000/svg"><path d="M40 20c0 11.046-8.954 20-20 20S0 31.046 0 20 8.954 0 20 0s20 8.954 20 20z" fill="#0075FF"/><path d="M19.55 12.396c1.985 0 3.855.917 5.226 2.35v.005c0-.689.445-1.21 1.059-1.21h.156c.97 0 1.163.953 1.163 1.254l.004 10.7c-.067.701.695 1.064 1.118.613 1.646-1.764 3.617-9.077-1.024-13.312-4.33-3.952-10.14-3.299-13.228-1.08-3.283 2.364-5.382 7.587-3.343 12.495 2.226 5.352 8.59 6.948 12.378 5.356 1.917-.807 2.801 1.891.808 2.774-3.004 1.336-11.375 1.2-15.284-5.858C5.94 21.716 6.08 13.332 13.09 8.986c5.356-3.325 12.424-2.404 16.684 2.233 4.453 4.851 4.195 13.929-.151 17.458-1.969 1.605-4.892.044-4.871-2.294l-.022-.762c-1.37 1.415-3.195 2.245-5.18 2.245-3.926 0-7.383-3.605-7.383-7.693 0-4.133 3.457-7.775 7.383-7.775v-.002zm4.94 7.481c-.15-2.995-2.282-4.8-4.86-4.8h-.097c-2.97 0-4.62 2.44-4.62 5.205 0 3.1 1.993 5.058 4.608 5.058 2.92 0 4.836-2.226 4.976-4.86l-.008-.603z" fill="#FFA800"/></svg><svg fill="none" viewBox="0 0 30 20" id="rus" xmlns="http://www.w3.org/2000/svg"><path d="M30 0H0v10h30V0z" fill="#fff"/><path d="M30 10H0v10h30V10z" fill="#D52B1E"/><path d="M30 6.667H0v6.666h30V6.667z" fill="#0039A6"/></svg><svg fill="none" viewBox="0 0 16 16" id="star" xmlns="http://www.w3.org/2000/svg"><g clip-path="url(#ayclip0_318_2)"><path d="M3.612 15.443c-.386.198-.824-.149-.746-.592l.83-4.73L.173 6.765c-.329-.314-.158-.888.283-.95l4.898-.696L7.538.792c.197-.39.73-.39.927 0l2.184 4.327 4.898.696c.441.062.612.636.282.95l-3.522 3.356.83 4.73c.078.443-.36.79-.746.592l-4.39-2.256-4.39 2.256h.001z" fill="#FFC700"/></g><defs><clipPath id="ayclip0_318_2"><path fill="#fff" d="M0 0h16v16H0z"/></clipPath></defs></svg><svg fill="none" viewBox="0 0 30 20" id="tat" xmlns="http://www.w3.org/2000/svg"><path d="M30 0H0v9.333h30V0z" fill="green"/><path d="M30 9.333H0v1.334h30V9.333z" fill="#fff"/><path d="M30 10.667H0V20h30v-9.333z" fill="red"/></svg><svg fill="none" viewBox="0 0 40 40" id="tg" xmlns="http://www.w3.org/2000/svg"><path d="M20 0C8.954 0 0 8.954 0 20s8.954 20 20 20 20-8.954 20-20S31.046 0 20 0z" fill="#40B3E0"/><path d="M29.732 11.505l-3.573 18.01s-.5 1.25-1.873.65l-8.244-6.32-2.997-1.449-5.046-1.698s-.774-.275-.85-.875c-.074-.6.875-.924.875-.924l20.059-7.869s1.649-.724 1.649.475" fill="#fff"/><path d="M15.41 29.313s-.242-.022-.542-.972c-.3-.95-1.823-5.945-1.823-5.945l12.115-7.694s.7-.425.675 0c0 0 .125.075-.25.425s-9.517 8.568-9.517 8.568" fill="#D2E5F1"/><path d="M19.203 26.268l-3.26 2.973s-.255.193-.534.072l.624-5.522" fill="#B5CFE4"/></svg><svg fill="none" viewBox="0 0 40 40" id="twit" xmlns="http://www.w3.org/2000/svg"><path d="M36 20c0 8.837-7.163 16-16 16S4 28.837 4 20 11.163 4 20 4s16 7.163 16 16z" fill="#fff"/><path d="M20 0C8.955 0 0 8.955 0 20s8.955 20 20 20 20-8.955 20-20S31.045 0 20 0zm9.612 15.076c.013.21.013.428.013.643 0 6.553-4.991 14.102-14.112 14.102-2.812 0-5.42-.817-7.616-2.223.402.045.786.063 1.197.063a9.947 9.947 0 006.156-2.116 4.96 4.96 0 01-4.634-3.438c.764.112 1.451.112 2.237-.09a4.956 4.956 0 01-3.97-4.865v-.063c.657.37 1.43.599 2.238.63a4.963 4.963 0 01-2.21-4.125c0-.924.24-1.768.674-2.5a14.076 14.076 0 0010.223 5.183c-.7-3.37 1.817-6.098 4.844-6.098 1.428 0 2.714.598 3.62 1.562a9.793 9.793 0 003.148-1.192 4.935 4.935 0 01-2.179 2.728c1-.107 1.964-.384 2.857-.772a10.392 10.392 0 01-2.486 2.57z" fill="#1D9BF0"/></svg><svg fill="none" viewBox="0 0 40 40" id="vk" xmlns="http://www.w3.org/2000/svg"><path d="M35 20c0 8.284-6.716 15-15 15-8.284 0-15-6.716-15-15 0-8.284 6.716-15 15-15 8.284 0 15 6.716 15 15z" fill="#fff"/><path d="M20 0C8.954 0 0 8.954 0 20s8.954 20 20 20 20-8.954 20-20S31.046 0 20 0zm7.692 22.565s1.768 1.745 2.204 2.556c.012.017.019.033.023.042.177.297.218.529.131.702-.146.287-.646.429-.817.441h-3.125c-.216 0-.67-.056-1.22-.435-.423-.296-.84-.781-1.246-1.254-.607-.704-1.132-1.313-1.66-1.313a.636.636 0 00-.199.031c-.4.13-.912.7-.912 2.221 0 .475-.375.748-.64.748H18.8c-.488 0-3.027-.17-5.277-2.544-2.754-2.906-5.233-8.735-5.254-8.79-.156-.376.166-.578.518-.578h3.157c.42 0 .558.256.654.483.112.265.525 1.317 1.202 2.5 1.098 1.93 1.77 2.712 2.31 2.712a.625.625 0 00.29-.075c.704-.391.573-2.902.542-3.422 0-.098-.002-1.123-.363-1.615-.258-.356-.698-.492-.964-.542.107-.149.25-.27.414-.352.483-.241 1.354-.277 2.219-.277h.481c.938.013 1.18.073 1.519.159.687.164.702.608.642 2.127a33.05 33.05 0 00-.038 1.493c0 .125-.006.259-.006.4-.021.773-.046 1.65.5 2.01a.45.45 0 00.237.07c.19 0 .76 0 2.307-2.653.476-.853.89-1.74 1.24-2.654.03-.054.122-.22.23-.285a.555.555 0 01.259-.06h3.71c.404 0 .681.06.733.216.092.248-.016 1.004-1.71 3.298l-.756.998c-1.536 2.012-1.536 2.115.096 3.642z" fill="#0085FF"/></svg><svg fill="none" viewBox="0 0 40 40" id="whats" xmlns="http://www.w3.org/2000/svg"><path d="M10.572 34.378l.654.325c2.725 1.621 5.777 2.378 8.829 2.378 9.59 0 17.438-7.784 17.438-17.297 0-4.54-1.853-8.973-5.122-12.216-3.27-3.244-7.63-5.081-12.317-5.081-9.59 0-17.438 7.783-17.33 17.405 0 3.243.982 6.378 2.617 9.08l.435.65L4.033 36l6.54-1.622z" fill="#00E676"/><path d="M34.223 5.838C30.518 2.054 25.395 0 20.163 0 9.046 0 .11 8.973.218 19.892c0 3.46.98 6.81 2.616 9.838L0 40l10.572-2.703c2.943 1.622 6.213 2.379 9.483 2.379C31.063 39.676 40 30.703 40 19.784c0-5.297-2.071-10.27-5.777-13.946zm-14.06 30.486c-2.942 0-5.885-.756-8.392-2.27l-.654-.324-6.321 1.622 1.635-6.163-.436-.648c-4.796-7.676-2.507-17.838 5.34-22.595 7.848-4.757 17.984-2.487 22.78 5.297 4.795 7.784 2.506 17.838-5.341 22.595-2.507 1.621-5.559 2.486-8.61 2.486zm9.592-12l-1.2-.54s-1.743-.757-2.833-1.297c-.109 0-.218-.108-.327-.108-.327 0-.545.108-.763.216 0 0-.109.108-1.635 1.838a.6.6 0 01-.545.324h-.109c-.109 0-.327-.108-.436-.216l-.545-.216c-1.199-.541-2.288-1.19-3.16-2.055-.218-.216-.545-.432-.763-.648-.763-.757-1.526-1.622-2.071-2.595l-.11-.216c-.108-.108-.108-.216-.217-.432 0-.217 0-.433.109-.541 0 0 .436-.54.763-.865.218-.216.327-.54.545-.757.218-.324.327-.756.218-1.08-.11-.541-1.417-3.46-1.744-4.109-.218-.324-.436-.432-.763-.54H12.97c-.218 0-.436.108-.654.108l-.109.108c-.218.108-.436.324-.654.432-.218.217-.327.433-.545.649-.763.973-1.199 2.162-1.199 3.351 0 .865.218 1.73.545 2.487l.11.324a18.013 18.013 0 004.032 5.514l.436.432c.327.324.654.54.872.865 2.289 1.946 4.904 3.351 7.847 4.108.327.108.763.108 1.09.216h1.09c.545 0 1.199-.216 1.635-.432.327-.216.545-.216.763-.433l.218-.216c.218-.216.436-.324.654-.54.218-.216.436-.433.545-.649.218-.432.327-.973.436-1.513v-.757s-.11-.108-.327-.216z" fill="#fff"/></svg></svg>