<svg width="630" height="630" viewBox="0 0 630 630" fill="none" xmlns="http://www.w3.org/2000/svg">
<circle cx="315" cy="315" r="315" fill="white"/>
<path fill-rule="evenodd" clip-rule="evenodd" d="M290.428 0.68735C214.133 7.16473 145.577 38.8202 92.212 92.2115C43.109 141.34 12.384 203.16 2.60082 272.513C-0.866938 297.093 -0.866938 332.813 2.60082 357.393C15.3882 448.045 64.7047 526.665 140.596 577.386C207.639 622.192 288.923 639.162 370.01 625.281C432.389 614.603 491.931 583.507 537.72 537.694C586.801 488.588 617.552 426.716 627.331 357.393C631.421 328.4 630.778 292.214 625.627 261.572C610.234 170.004 552.946 88.1943 471.458 41.4137C463.776 37.0039 441.685 25.8316 440.647 25.8316C440.454 25.8316 436.792 24.3688 432.509 22.5817C410.542 13.4133 384.064 6.37296 357.409 2.61372C340.124 0.175419 307.503 -0.762235 290.428 0.68735ZM349.451 20.8118C387.894 25.6784 423.527 36.9648 455.8 54.4957C544.522 102.689 602.594 192.206 610.141 292.407C611.122 305.421 610.533 338.018 609.112 349.435C601.775 408.358 579.164 460.441 541.03 506.264C533.143 515.74 513.708 534.904 503.629 543.142C457.673 580.705 404.678 602.985 345.804 609.494C335.078 610.68 294.854 610.68 284.128 609.494C198.985 600.081 123.78 556.288 74.1689 487.233C45.1025 446.773 27.0999 400.127 20.7314 348.772C19.0184 334.957 19.0184 294.949 20.7314 281.134C29.2028 212.82 57.9317 153.546 105.738 105.742C122.528 88.9536 136.707 77.5479 156.555 64.861C194.223 40.7857 240.319 24.7454 283.797 20.585C287.991 20.1838 292.617 19.7402 294.076 19.5996C301.023 18.9305 341.608 19.8184 349.451 20.8118ZM331.905 45.2279C331.04 47.9713 331.119 50.7975 332.093 51.9016C333.066 53.005 333.057 53.7736 331.99 61.1853C329.074 81.4444 328.743 83.0617 327.226 84.4795C326.331 85.3157 325.586 87.0557 325.302 88.9721C324.872 91.8753 324.949 92.1239 326.369 92.431C329.44 93.0954 341.089 94.7579 341.287 94.5596C341.399 94.4475 341.75 92.9727 342.066 91.2818C342.561 88.6286 342.462 88.0471 341.335 87.0272C340.265 86.0597 340.082 85.2175 340.319 82.3648C340.477 80.4497 340.778 78.7116 340.987 78.5028C341.197 78.2939 342.749 78.5923 344.438 79.1652C348.24 80.4556 353.421 80.5067 356.353 79.2813C362.711 76.6248 367.289 63.546 364.456 56.1284C362.115 49.9998 358.752 48.3778 343.483 46.0104C331.358 44.1311 332.233 44.1902 331.905 45.2279ZM265.559 50.0641C260.453 50.9182 256.166 51.6344 256.033 51.6556C255.173 51.7909 256.941 57.9367 258.205 59.1999C259.347 60.3418 259.924 62.0905 260.55 66.3159C261.007 69.3974 261.777 74.3059 262.262 77.2236C263.962 87.4688 264.131 90.4927 263.064 91.5603C262.322 92.3023 262.198 93.3043 262.556 95.665C262.816 97.3825 263.163 98.9216 263.327 99.0847C263.609 99.3679 275.152 97.8427 278.352 97.1C279.7 96.7864 279.823 96.4707 279.455 94.2797C278.775 90.2493 278.453 89.4913 277.418 89.4913C276.214 89.4913 274.512 85.62 274.512 82.8814V80.8708H278.844C289.08 80.8708 294.421 74.8761 293.543 64.3696C293.041 58.3399 292.047 55.3883 289.574 52.5714C285.465 47.8917 281.204 47.4474 265.559 50.0641ZM376.303 54.3678C375.484 56.8306 375.405 57.9155 375.964 58.9612C376.367 59.7138 377.176 67.3849 377.762 76.0081C378.8 91.2931 378.795 91.7101 377.569 92.6153C376.788 93.1916 375.525 93.3991 374.243 93.1624C372.23 92.7897 372.15 92.8706 371.178 96.2751L370.18 99.7697L372.913 101.033C374.525 101.778 377.144 102.304 379.294 102.316C385.887 102.351 387.325 100.909 402.158 79.39C406.113 73.6513 409.865 68.7927 410.496 68.5924C411.468 68.284 413.63 62.5248 412.98 61.9771C412.615 61.6694 399.317 57.6615 398.662 57.6615C397.876 57.6615 397.007 61.5315 396.875 65.619C396.798 68.0241 396.045 69.7535 392.995 74.5313C390.913 77.7926 389.068 80.6022 388.894 80.7759C388.721 80.9497 388.579 77.3118 388.579 72.6925C388.579 65.4041 388.741 64.1302 389.805 63.0659C391.023 61.8484 392.558 58.2477 392.558 56.6078C392.558 55.8724 388.837 54.4997 379.163 51.6669C377.472 51.1715 377.315 51.32 376.303 54.3678ZM351.591 57.0793C352.221 57.4161 353.072 58.318 353.481 59.0832C354.554 61.0865 353.643 67.1587 351.947 69.3145C350.63 70.9896 350.327 71.0658 346.573 70.6733C344.385 70.4445 342.456 70.1182 342.285 69.9478C342.114 69.7774 342.463 66.7058 343.06 63.123C343.658 59.5401 344.146 56.3644 344.146 56.0654C344.146 55.4148 349.962 56.2073 351.591 57.0793ZM280.192 59.1873C281.722 60.503 282.011 61.3597 282.302 65.4167C282.617 69.8205 282.538 70.1852 281.062 71.1454C280.196 71.7097 277.977 72.3689 276.132 72.6109L272.777 73.0506L271.834 66.5162C271.314 62.9227 270.885 59.684 270.877 59.3193C270.865 58.6913 273.776 57.94 276.962 57.749C277.762 57.7006 279.215 58.3478 280.192 59.1873ZM224.774 61.9486C219.485 63.8915 214.338 65.8026 213.337 66.1959L211.516 66.9101L212.823 70.2276C213.543 72.0519 214.735 74.1487 215.473 74.8867C216.212 75.6248 216.816 76.6022 216.816 77.0578C216.815 77.514 217.739 84.1479 218.868 91.8003C220.387 102.092 220.736 106.01 220.212 106.851C219.568 107.882 220.425 111.819 221.766 113.988C222.093 114.518 234.792 110.198 235.765 109.226C236.594 108.397 234.137 103.103 232.605 102.416C231.072 101.729 229.569 97.6444 230.534 96.7917C230.831 96.5291 233.119 95.6087 235.618 94.7459C240.045 93.2174 240.185 93.2088 241.076 94.427C241.613 95.1617 241.946 97.0682 241.882 99.0496C241.823 100.904 242.202 103.372 242.724 104.532L243.674 106.643L250.969 103.957C254.982 102.479 258.332 101.214 258.414 101.144C259.019 100.632 255.853 94.4608 254.783 94.0649C252.757 93.3156 237.22 68.3258 237.582 66.3988C237.894 64.741 235.909 58.8014 234.964 58.5613C234.648 58.4811 230.063 60.0056 224.774 61.9486ZM424.598 68.4372C422.801 71.2323 422.432 72.6779 422.715 75.8025C422.885 77.6785 423.182 82.2388 423.374 85.9377L423.724 92.6617L416.048 97.4528C411.826 100.088 407.525 102.564 406.489 102.955C405.281 103.411 404.085 104.708 403.156 106.568C402.359 108.164 401.812 109.557 401.94 109.662C402.82 110.382 413.889 116.116 414.029 115.924C414.127 115.793 414.989 114.317 415.946 112.645C417.712 109.558 422.484 104.743 423.777 104.743C424.964 104.743 423.761 112.059 422.007 115.507C421.129 117.232 420.411 118.896 420.411 119.202C420.411 119.509 423.078 121.166 426.338 122.885L432.265 126.009L433.905 123.168C435.345 120.671 435.476 119.925 434.98 117.011C434.671 115.187 434.399 110.227 434.378 105.989L434.338 98.2824L441.488 93.9774C445.42 91.61 449.304 89.4615 450.12 89.2022C451.769 88.679 454.654 83.6691 453.789 82.8316C452.423 81.5094 442.689 76.7083 442.5 77.2647C441.797 79.3383 438.939 83.0564 436.659 84.8641L434.006 86.9675L433.803 83.8946C433.658 81.703 434.071 79.7939 435.24 77.2388L436.88 73.6567L435.443 72.715C433.792 71.6335 425.91 67.6083 425.443 67.6083C425.272 67.6083 424.892 67.9817 424.598 68.4372ZM236.046 86.5418C236.048 87.2977 229.564 89.8607 229.022 89.3189C228.491 88.7871 225.545 70.6434 225.896 70.0645C226.244 69.4903 236.045 85.3999 236.046 86.5418ZM175.699 84.949C167.492 90.4151 160.379 95.1166 159.893 95.3965C159.229 95.7784 160.192 97.6829 163.75 103.022C167.118 108.077 168.719 109.958 169.276 109.517C169.708 109.176 171.338 108.103 172.897 107.132L175.733 105.368L174.057 102.511C173.136 100.939 172.383 99.2034 172.383 98.6537C172.383 97.2744 174.924 95.0675 175.622 95.8401C176.374 96.6716 191.358 119.602 192.303 121.367C192.716 122.139 192.874 123.488 192.654 124.364C192.378 125.464 192.796 126.774 194.005 128.601L195.756 131.247L198.162 129.747C199.485 128.922 202.549 126.953 204.972 125.372L209.376 122.496L207.625 119.609C206.438 117.651 205.41 116.715 204.437 116.701C202.638 116.674 201.005 114.591 192.014 100.843C188.105 94.8679 185.065 89.5709 185.256 89.0723C185.448 88.5736 186.505 88.1651 187.605 88.1651C189.206 88.1651 189.958 88.6969 191.362 90.8176C192.328 92.2765 193.207 93.4701 193.317 93.4701C194.007 93.4701 200.236 89.185 200.236 88.7102C200.236 87.8839 191.549 74.8914 191.04 74.9564C190.809 74.9862 183.906 79.4828 175.699 84.949ZM467.536 94.6266C466.41 95.9919 465.64 97.5032 465.825 97.984C466.398 99.4773 464.521 102.091 455.738 112.034C446.396 122.608 444.496 124.036 441.968 122.38C440.445 121.382 440.309 121.435 438.357 123.804C437.241 125.157 436.327 126.473 436.327 126.726C436.327 127.945 440.232 131.603 442.697 132.694C448.456 135.24 451.551 133.282 463.518 119.519C468.077 114.275 472.474 109.355 473.288 108.585L474.768 107.186L478.029 110.109C479.821 111.717 481.319 113.27 481.356 113.561C481.458 114.357 461.742 136.349 460.498 136.826C459.905 137.054 459.151 137.075 458.825 136.873C458.269 136.53 453.902 140.944 453.902 141.849C453.902 142.076 456.499 144.573 459.675 147.398L465.447 152.534L467.799 150.024C469.401 148.315 470.05 147.078 469.836 146.145C469.426 144.353 470.135 143.386 480.595 131.469C488.743 122.187 490.862 120.287 492.497 120.801C492.827 120.905 494.04 119.919 495.192 118.612L497.287 116.233L494.826 113.9C490.933 110.207 470.23 92.1438 469.89 92.1438C469.721 92.1438 468.662 93.2612 467.536 94.6266ZM144.529 110.22C143.253 111.402 139.149 115.012 135.411 118.241C131.672 121.47 128.613 124.369 128.613 124.683C128.613 125.7 132.798 130.053 134.34 130.639C136.091 131.305 135.856 130.945 144.108 145.605C148.154 152.794 150.498 157.67 150.498 158.902C150.498 160.251 151.202 161.53 152.789 163.069L155.081 165.29L157.266 163.552C158.467 162.597 161.029 160.387 162.958 158.643L166.465 155.472L164.401 152.985C163.086 151.4 161.773 150.499 160.777 150.499C159.14 150.499 156.27 147.524 156.607 146.18C156.841 145.247 163.579 139.226 164.388 139.226C165.474 139.226 168.351 143.235 167.971 144.221C167.751 144.797 168.57 146.282 169.948 147.808L172.302 150.413L184.284 139.792L181.874 137.188C180.549 135.755 178.841 134.58 178.079 134.574C177.317 134.57 171.471 130.687 165.088 125.947C156.531 119.592 153.221 116.74 152.487 115.09C151.653 113.213 147.644 108.046 147.037 108.065C146.934 108.067 145.806 109.038 144.529 110.22ZM149.631 127.455C153.08 130.1 156.512 132.74 157.26 133.322C158.602 134.367 158.581 134.42 155.73 137.078C154.14 138.561 152.655 139.661 152.43 139.521C151.924 139.209 142.54 123.562 142.54 123.031C142.54 122.173 143.637 122.858 149.631 127.455ZM508.666 129.208C507.418 130.242 506.321 131.602 506.229 132.231C505.96 134.064 504.224 135.624 493.692 143.499C482.366 151.969 481.453 152.53 479.283 152.351C477.378 152.194 472.626 155.631 473.262 156.706C474.743 159.211 484.891 172.344 486.479 173.814C491.932 178.858 497.883 179.591 503.782 175.945C510.752 171.636 512.987 164.653 509.695 157.465C508.747 155.393 507.22 152.806 506.303 151.716C505.385 150.626 504.638 149.533 504.643 149.287C504.647 149.042 506.35 147.661 508.427 146.219C511.293 144.229 512.787 143.62 514.625 143.693C516.393 143.763 517.603 143.308 519.107 142.005L521.168 140.22L516.521 133.921C513.964 130.456 511.662 127.555 511.404 127.474C511.146 127.393 509.913 128.173 508.666 129.208ZM100.522 156.494C94.738 165.174 90.1754 172.551 90.3829 172.888C91.2285 174.255 103.39 181.758 104.075 181.334C104.481 181.083 105.67 179.501 106.718 177.819L108.622 174.76L106.366 173.226C105.124 172.383 103.818 171.15 103.463 170.487C102.669 169.004 103.266 166.414 104.401 166.414C105.411 166.414 127.532 181.151 130.105 183.537C131.108 184.468 131.929 185.73 131.929 186.341C131.929 187.371 136.961 191.474 137.498 190.882C138.283 190.019 145.853 178.13 145.842 177.78C145.834 177.546 144.714 176.573 143.355 175.616C141.572 174.362 140.314 173.963 138.847 174.182C137.109 174.442 134.982 173.259 124.257 166.069C117.352 161.44 111.404 157.365 111.039 157.012C110.602 156.591 110.916 155.932 111.96 155.078C113.731 153.632 115.206 153.849 118.27 156.008L120.195 157.365L121.602 155.599C122.377 154.629 123.517 152.977 124.135 151.929L125.261 150.023L118.813 145.726C115.267 143.363 112.067 141.267 111.702 141.07C111.337 140.873 106.306 147.814 100.522 156.494ZM499.235 156.166C500.976 158.379 501.536 161.113 500.699 163.314C499.758 165.789 496.198 167.884 493.692 167.436C491.484 167.042 486.927 162.628 487.821 161.751C489.045 160.551 497.035 154.552 497.457 154.516C497.704 154.495 498.504 155.237 499.235 156.166ZM531.028 158.781C529.392 159.893 528.53 161.03 528.388 162.262C528.214 163.775 526.056 165.683 515.95 173.264C506.029 180.705 503.407 182.375 502.048 182.116C500.902 181.896 499.47 182.417 497.508 183.767L494.642 185.739L496.706 188.509C497.84 190.034 499.865 192.844 501.205 194.754C502.544 196.665 503.859 198.231 504.129 198.235C505.568 198.259 509.87 194.42 510.059 192.942C510.219 191.702 512.424 189.667 518.893 184.793C531.696 175.146 535.183 172.911 536.804 173.319C537.74 173.553 539.005 173.007 540.635 171.663L543.07 169.657L538.361 163.393C535.771 159.948 533.609 157.13 533.556 157.13C533.503 157.13 532.365 157.873 531.028 158.781ZM393.592 180.426C392.604 181.204 391.526 182.547 391.198 183.41C390.616 184.943 390.405 184.981 382.613 184.981H374.625L346.7 212.832H324.577L259.596 277.818H254.525C250.628 277.818 249.365 278.049 249.071 278.813C248.752 279.646 246.754 279.807 236.775 279.807C218.131 279.807 217.708 281.909 241.054 258.555L260.908 238.694H267.665C273.79 238.694 274.461 238.815 274.834 239.991C275.443 241.909 279.015 244.662 280.896 244.662C284.992 244.662 289.001 240.36 288.131 236.895C286.94 232.149 283.015 229.937 278.865 231.671C277.548 232.22 275.956 233.577 275.326 234.683L274.181 236.696L260.266 236.704L219.025 277.981L201.341 277.862C185.728 277.757 183.657 277.864 183.657 278.776C183.657 279.662 182.307 279.807 174.095 279.807C168.836 279.807 164.061 279.988 163.484 280.21C162.124 280.732 162.124 283.525 163.484 284.047C164.061 284.268 168.836 284.449 174.095 284.449H183.657V286.139C183.657 287.16 184.378 288.449 185.481 289.396L187.304 290.964L187.753 312.3H174.817C167.701 312.3 161.409 312.481 160.832 312.703C159.398 313.253 159.508 315.422 161.01 316.226C161.696 316.593 167.76 316.883 174.771 316.882L187.304 316.881V336.953L185.528 338.48C184.402 339.448 183.673 340.821 183.539 342.234L183.325 344.462L162.767 345.125V348.441L173.212 348.623C179.426 348.732 183.657 349.067 183.657 349.452C183.657 349.855 190.206 350.1 201.065 350.102L218.474 350.104L264.155 395.854L284.128 395.886L327.235 438.945L347.13 438.965L348.283 440.991C349.287 442.754 349.751 442.99 351.864 442.81C353.596 442.663 354.681 442.082 355.645 440.786C356.926 439.064 356.94 438.849 355.928 436.726C354.601 433.943 352.034 433.111 349.633 434.684C348.716 435.284 347.817 436.343 347.636 437.035C347.331 438.201 346.57 438.294 337.295 438.294H327.283L306.535 417.585C295.123 406.195 285.786 396.646 285.786 396.365C285.786 396.084 289.666 395.854 294.407 395.854C301.866 395.854 303.029 395.997 303.029 396.914C303.029 397.497 303.956 398.84 305.089 399.898C307.324 401.986 311.074 402.495 313.007 400.972C317.938 397.087 317.042 390.448 311.333 388.564C308.326 387.572 304.869 389.121 303.46 392.092L302.462 394.196L264.47 393.825L242.883 372.241C226.394 355.753 221.48 350.474 222.073 349.88C223.136 348.817 247.826 348.348 248.85 349.372C249.341 349.863 255.486 350.098 267.831 350.098H286.085L347.812 411.769H353.274C356.278 411.769 358.736 412.034 358.736 412.358C358.736 412.682 365.902 420.142 374.66 428.936L390.585 444.925H404.79C418.94 444.925 418.997 444.931 419.467 446.417C420.448 449.524 424.142 451.429 427.54 450.581C433.665 449.053 434.531 440.773 428.848 438.076C427.563 437.467 426.108 436.969 425.616 436.97C424.019 436.974 420.404 439.574 419.628 441.276L418.872 442.936H391.02L375.911 427.891C367.6 419.615 360.951 412.603 361.134 412.307C361.317 412.011 379.435 411.769 401.397 411.769H441.328L453.875 424.368H457.37C459.293 424.368 460.865 424.655 460.865 425.005C460.865 426.28 463.814 428.347 465.633 428.347C467.913 428.347 470.149 426.249 470.149 424.11C470.149 419.139 462.667 417.745 461.177 422.438C460.855 423.454 460.143 423.705 457.584 423.705C454.461 423.705 454.264 423.579 448.509 417.903C440.07 409.576 440.029 409.874 451.138 398.672L459.852 389.886H474.285C486.985 389.886 488.718 390.011 488.718 390.931C488.718 391.506 489.59 392.849 490.657 393.916C493.555 396.813 497.161 396.656 499.923 393.51C503.501 389.436 502.131 384.282 497.023 382.596C494.04 381.612 490.255 383.266 489.076 386.069L488.267 387.994L459.207 387.861L439.328 407.79H421.856C411.926 407.79 404.48 407.535 404.606 407.2C404.727 406.876 412.995 398.222 422.978 387.969L441.13 369.329L475.786 369.289L487.392 359.296C493.775 353.799 499.097 349.034 499.218 348.706C499.34 348.378 500.777 348.109 502.412 348.109C504.899 348.109 505.656 348.433 507.057 350.098C511.88 355.83 520.553 348.527 515.919 342.636C515.196 341.717 513.855 340.776 512.94 340.546C510.454 339.923 506.991 341.644 506.021 343.986C505.296 345.734 504.803 346.025 502.212 346.232C500.575 346.362 499.108 346.34 498.951 346.183C498.794 346.027 498.666 344.565 498.666 342.935C498.666 340.626 498.3 339.633 497.008 338.435L495.35 336.899V320.061C495.35 300.227 495.062 301.027 502.2 301.027C505.787 301.027 506.624 301.226 506.624 302.073C506.624 302.648 507.496 303.991 508.563 305.057C512.835 309.328 519.888 306.406 519.888 300.364C519.888 296.653 517.116 293.733 513.595 293.733C510.494 293.733 508.85 294.639 507.287 297.208C506.112 299.141 505.77 299.278 501.852 299.381C499.553 299.441 497.224 299.612 496.676 299.761C495.415 300.106 495.35 299.874 495.35 295.027C495.35 291.602 495.592 290.793 497.008 289.481C498.497 288.101 498.666 287.429 498.666 282.9V277.855L479.765 277.486L487.954 271.187L493.476 271.213C498.959 271.238 499.007 271.252 500.335 273.364C502.363 276.587 504.918 277.582 508.193 276.425C513.519 274.545 514.47 267.781 509.869 264.505C506.525 262.125 500.877 264.038 499.628 267.976C499.289 269.041 498.49 269.197 493.374 269.197H487.507L482.036 273.508C477.879 276.783 476.054 277.818 474.435 277.818C472.598 277.818 472.25 278.093 471.907 279.807L471.509 281.797H455.491L454.094 277.79L428.038 278.15L428.027 279.807C428.017 281.404 427.839 281.473 423.219 281.66L418.422 281.855V279.837C418.422 277.91 418.296 277.818 415.651 277.818H412.88L444.774 245.988H465.707C485.901 245.988 486.654 246.034 487.051 247.285C487.66 249.204 491.232 251.956 493.113 251.956C496.919 251.956 499.992 248.817 499.992 244.929C499.992 241.238 496.865 238.031 493.266 238.031C491.152 238.031 488.19 240.082 487.34 242.136L486.568 243.999H444.575L410.795 277.815L366.694 277.818V279.647C366.694 281.15 363.931 284.236 351.219 296.939C336.467 311.679 335.639 312.391 333.479 312.185L331.214 311.969L331.236 290.947L333.049 289.388C334.725 287.945 334.861 287.454 334.861 282.823V277.818H313.337L324.553 266.545H375.281L376.289 268.494C379.713 275.115 389.242 273.193 389.242 265.882C389.242 259.861 382.484 257.021 378.038 261.174C376.905 262.233 375.978 263.576 375.978 264.158C375.978 265.112 373.33 265.219 349.61 265.219H323.24L312.313 276.16C306.303 282.178 301.159 287.102 300.881 287.102C300.603 287.102 300.376 285.013 300.376 282.46V277.818H265.565L325.903 217.474H338.513L362.568 241.346H368.941C372.447 241.346 375.315 241.622 375.315 241.958C375.315 243.427 378.862 246.635 380.912 247.019C388.037 248.356 391.869 238.498 385.72 234.649C382.181 232.434 376.838 234.277 375.613 238.135C375.274 239.205 374.469 239.357 369.128 239.357H363.031L352.593 228.906C346.853 223.157 342.156 218.233 342.156 217.964C342.156 217.694 353.725 217.474 367.866 217.474H393.575L408.12 232.063H428.719L446.588 214.158H451.758C456.084 214.158 456.994 214.348 457.335 215.319C457.56 215.957 458.501 217.3 459.428 218.303C461.714 220.777 466.135 220.886 468.495 218.526C473.02 214 470.267 206.864 463.995 206.864C460.986 206.864 459.311 208.038 457.609 211.34C456.901 212.713 456.381 212.832 451.124 212.832H445.409L428.222 230.073H408.599L402.582 223.939C397.17 218.423 396.697 217.745 397.877 217.207C398.605 216.874 399.189 215.959 399.189 215.15C399.189 214.141 401.725 211.311 407.416 205.967L415.644 198.243H430.892L431.571 200.19C432.282 202.229 435.28 204.212 437.654 204.212C439.599 204.212 442.788 202.454 443.602 200.932C444.91 198.49 444.421 194.582 442.579 192.739C439.18 189.34 434.647 189.915 432.028 194.077L430.69 196.203L415.175 196.254L397.531 212.78L349.12 212.827L375.172 186.97H391.087L391.509 188.649C391.96 190.448 395.405 192.932 397.453 192.936C399.684 192.94 403.05 190.332 403.819 188.003C404.794 185.051 404.117 182.687 401.719 180.669C399.262 178.602 396.034 178.506 393.592 180.426ZM401.131 182.75C401.887 183.71 402.505 185.216 402.505 186.095C402.505 188.204 399.692 190.949 397.531 190.949C395.27 190.949 392.558 188.186 392.558 185.883C392.558 181.43 398.41 179.291 401.131 182.75ZM441.211 194.023C443.396 196.209 443.438 198.487 441.331 200.594C439.454 202.472 436.662 202.715 434.486 201.19C433.377 200.413 433.011 199.495 433.011 197.483C433.011 192.619 437.79 190.604 441.211 194.023ZM467.662 210.003C469.257 211.44 469.199 215.602 467.564 217.082C464.808 219.575 458.875 217.457 458.875 213.979C458.875 212.255 460.882 208.969 462.154 208.61C463.725 208.167 466.367 208.835 467.662 210.003ZM284.821 234.354C286.811 236.342 286.898 238.608 285.075 240.925C284.073 242.198 283.091 242.673 281.453 242.673C276.82 242.673 274.669 236.917 278.249 234.1C280.567 232.277 282.832 232.364 284.821 234.354ZM385.624 237.006C386.519 237.901 387.252 239.407 387.252 240.352C387.252 242.723 384.493 245.325 381.977 245.325C379.243 245.325 377.305 243.262 377.305 240.352C377.305 235.707 382.312 233.694 385.624 237.006ZM495.652 240.432C497.271 241.053 498.758 244.398 498.273 246.33C497.407 249.777 492.894 251.081 489.984 248.725C488.83 247.791 488.468 246.853 488.523 244.935C488.631 241.1 491.943 239.009 495.652 240.432ZM91.8068 253.922C86.1134 256.306 76.4827 270.292 77.9331 274.069C78.1646 274.672 78.5877 275.166 78.8742 275.166C79.1606 275.166 80.9101 276.528 82.7617 278.193C87.0704 282.067 89.7052 287.412 91.7292 296.385L93.2996 303.348L93.9674 300.696C94.3348 299.237 95.1028 296.043 95.6738 293.598C97.3874 286.267 99.6515 282.311 104.846 277.57L109.515 273.309L107.629 269.098C104.962 263.146 99.619 256.724 95.1777 254.135C93.5675 253.196 93.5436 253.195 91.8068 253.922ZM386.209 262.281C388.929 265.001 387.632 269.418 383.702 270.818C379.696 272.245 376.056 265.777 379.022 262.501C380.439 260.935 384.732 260.804 386.209 262.281ZM38.3341 269.695C42.6501 278.288 43.3524 283.015 42.6899 299.003C41.7462 321.798 41.9564 336.506 43.296 341.366C46.2273 351.996 51.8424 359.241 59.3111 362.029C66.4515 364.694 74.4435 363.94 80.3192 360.049C87.2255 355.474 89.5089 349.173 89.9837 333.374C90.8697 303.925 83.1344 283.611 66.9343 272.843C59.3104 267.774 48.3415 264.556 38.6969 264.556H35.7537L38.3341 269.695ZM143.24 265.31C122.56 268.739 105.649 283.333 99.5938 302.979C97.8947 308.491 97.841 309.192 97.7157 327.552C97.5598 350.292 96.8907 353.797 91.3598 360.834C89.2151 363.564 82.9898 366.976 78.8907 367.668C75.5802 368.227 75.4721 369.42 78.5598 371.329C82.1748 373.562 87.2196 374.617 94.3288 374.626C105.303 374.639 114.43 371.809 122.874 365.775C130.566 360.277 137.649 351.4 140.569 343.597C144.011 334.398 144.159 332.857 144.214 305.669C144.27 277.67 144.334 277.114 148.456 269.197C149.579 267.039 150.498 265.111 150.498 264.914C150.498 264.428 147.602 264.586 143.24 265.31ZM509.638 266.847C510.534 267.742 511.266 269.247 511.266 270.192C511.266 271.137 510.534 272.642 509.638 273.538C506.385 276.792 501.319 274.739 501.319 270.166C501.319 265.547 506.337 263.545 509.638 266.847ZM312.185 289.428C313.967 290.96 313.972 290.989 314.195 301.632L314.419 312.3H284.46V309.51C284.46 307.187 284.871 306.299 286.915 304.205C289.368 301.694 289.378 301.69 294.874 301.69H300.376V290.939L309.992 281.011L310.195 284.451C310.358 287.223 310.745 288.191 312.185 289.428ZM249.211 286.423C249.339 287.327 250.16 288.73 251.035 289.542C252.588 290.981 252.627 291.277 252.627 301.659V312.3L228.421 312.271L230.079 310.974C230.991 310.261 231.949 309.67 232.207 309.663C232.465 309.655 233.509 308.231 234.528 306.498C236.184 303.68 236.379 302.719 236.379 297.378C236.379 292.278 236.127 290.899 234.647 287.909L232.915 284.41L240.947 284.595C248.933 284.78 248.981 284.791 249.211 286.423ZM427.706 286.836C427.706 287.419 428.601 288.732 429.696 289.754C431.313 291.265 431.685 292.149 431.685 294.481V297.349L426.38 292.075C423.462 289.175 421.074 286.571 421.074 286.288C421.074 286.006 422.566 285.776 424.39 285.776C426.986 285.776 427.706 286.006 427.706 286.836ZM470.149 286.088C470.149 287.029 463.933 309.398 463.553 309.823C463.177 310.245 456.807 287.812 456.867 286.273C456.887 285.744 470.149 285.559 470.149 286.088ZM431.685 333.52H418.422V324.237H402.651L402.401 329.168C402.194 333.263 401.881 334.388 400.555 335.799C399.075 337.374 398.53 337.499 393.105 337.499H387.252V326.516L394.917 318.932H409.728L410.602 320.755C411.362 322.34 411.862 322.579 414.426 322.579C416.935 322.579 417.525 322.314 418.374 320.8C420.376 317.235 417.156 313.465 412.999 314.508C412.103 314.733 410.96 315.684 410.458 316.622C409.622 318.183 409.233 318.31 405.859 318.132L402.174 317.937V306.993L387.252 306.995V290.251L392.923 290.549C397.943 290.812 398.792 291.045 400.325 292.578C401.66 293.913 402.128 295.156 402.363 298L402.67 301.69H418.422V286.795L431.685 300.007V333.52ZM368.683 289.754C369.959 291.029 370.01 291.964 370.01 313.99V336.899L368.352 338.435C367.058 339.634 366.694 340.626 366.694 342.947C366.694 345.656 366.385 346.225 363.224 349.336L359.755 352.751H347.389C337.853 352.751 334.855 352.547 334.285 351.861C333.879 351.372 333.742 350.775 333.983 350.535C334.223 350.295 339.747 350.098 346.258 350.098H358.098L357.741 319.926H343.814L343.438 326.226C342.86 335.928 341.179 338.133 334.347 338.152L330.849 338.162L331.214 316.706L337.846 316.525L351.752 302.477C359.399 294.75 366.04 288.428 366.507 288.428C366.974 288.428 367.954 289.025 368.683 289.754ZM216.411 291.716C218.554 292.53 220.132 295.604 220.132 298.962C220.132 305.111 217.569 306.995 209.21 306.995H204.215V299.093C204.215 293.414 204.449 291.085 205.044 290.815C206.192 290.294 214.379 290.943 216.411 291.716ZM280.668 291.309C283.711 292.581 284.496 293.813 284.927 297.998C285.137 300.029 285.626 301.69 286.014 301.69C286.402 301.69 285.553 302.884 284.128 304.343L281.538 306.995H269.87V290.417H274.202C276.585 290.417 279.494 290.819 280.668 291.309ZM515.473 295.795C517.069 296.522 518.561 298.889 518.561 300.69C518.561 301.2 517.865 302.426 517.014 303.415C515.2 305.524 511.886 305.773 509.873 303.951C507.914 302.179 508.175 298.153 510.361 296.434C512.355 294.866 513.2 294.76 515.473 295.795ZM452.868 316.445C452.923 318.092 452.099 317.887 450.047 315.745C448.372 313.997 448.269 313.529 448.327 307.954L448.389 302.022L450.609 308.653C451.829 312.3 452.846 315.807 452.868 316.445ZM478.771 310.311V317.605H476.56C475.344 317.605 474.187 317.442 473.987 317.243C473.788 317.044 474.485 314.21 475.535 310.944C476.585 307.678 477.444 304.558 477.444 304.011C477.444 303.464 477.743 303.017 478.108 303.017C478.509 303.017 478.771 305.89 478.771 310.311ZM523.867 311.17C523.867 312.99 524.249 314.445 524.862 314.953C525.686 315.637 525.856 318.084 525.856 329.244C525.856 340.329 525.681 342.885 524.862 343.704C524.267 344.298 523.867 345.919 523.867 347.73V350.762H537.793V347.517C537.793 345.244 537.496 344.158 536.799 343.89C536.034 343.597 535.804 342.333 535.804 338.428V333.348L538.857 333.692C543.505 334.216 544.057 335.135 544.32 342.796C544.472 347.19 544.838 349.615 545.421 350.1C545.924 350.517 548.223 350.741 550.831 350.628L555.368 350.43L555.577 347.497C555.73 345.364 555.504 344.405 554.748 343.982C554.003 343.565 553.71 342.376 553.71 339.766C553.71 335.424 552.391 331.936 550.331 330.834L548.829 330.03L550.625 328.723C553.222 326.831 554.373 324.146 554.373 319.982C554.373 315.165 552.866 312.16 549.477 310.218C546.95 308.77 545.894 308.637 535.307 308.432L523.867 308.212V311.17ZM561.447 308.764C560.515 309.696 561.018 313.822 562.165 314.659C563.189 315.406 563.365 317.18 563.657 329.652C563.953 342.283 564.133 344.047 565.331 346.12C567.378 349.662 571.449 351.425 577.584 351.425C583.321 351.425 587.475 349.775 589.814 346.57C591.067 344.853 591.206 343.492 591.511 330.103C591.804 317.203 591.977 315.409 593.003 314.66C593.785 314.089 594.164 312.916 594.164 311.067V308.322H580.237L580.258 311.14C580.269 312.69 580.717 314.538 581.253 315.245C582.024 316.265 582.226 318.981 582.226 328.311C582.226 340.848 581.734 343.409 579.301 343.543C573.368 343.87 573.273 343.636 573.273 328.471C573.273 316.893 573.397 315.42 574.434 314.661C575.216 314.09 575.595 312.916 575.595 311.067V308.322H568.742C564.972 308.322 561.69 308.521 561.447 308.764ZM417.389 316.427C418.711 318.314 418.694 319.521 417.324 321.034C414.627 324.015 409.652 321.152 411.066 317.433C412.131 314.631 415.73 314.059 417.389 316.427ZM543.762 316.942C544.689 317.869 545.088 319.152 545.088 321.204C545.088 324.981 542.96 326.889 538.748 326.889H535.901L535.472 315.613L538.954 315.615C541.55 315.615 542.773 315.954 543.762 316.942ZM252.487 325.711C252.7 335.533 252.503 336.945 250.683 338.641C249.988 339.289 249.321 340.864 249.199 342.141L248.98 344.462L242.395 344.653C234.016 344.896 233.721 344.785 235.346 341.999C238.677 336.285 238.454 322.221 234.968 318.215C234.466 317.638 234.18 317.041 234.332 316.889C234.485 316.735 238.588 316.678 243.452 316.759L252.296 316.907L252.487 325.711ZM305.735 325.692C315.036 335.046 315.287 335.571 311.928 338.628C310.501 339.926 310.324 340.644 310.324 345.093V350.098H330.372L334.624 354.74H396.94L401.439 350.098H418.422V334.847H424.611C428.016 334.847 430.98 335.026 431.198 335.244C431.856 335.901 430.243 338.772 428.995 339.169C428.008 339.482 427.849 340.307 427.936 344.652L428.038 349.767L451.519 350.129L451.716 345.662C451.912 341.197 451.913 341.196 454.095 340.752C455.295 340.508 456.855 339.785 457.562 339.145C458.472 338.322 460.052 337.96 462.964 337.906L467.08 337.831L473.134 319.263H478.439V328.007C478.439 336.643 478.417 336.775 476.615 338.654C474.971 340.368 474.792 341.025 474.792 345.327V350.098H484.463C490.66 350.098 494.054 350.338 493.912 350.766C493.789 351.134 489.397 355.162 484.15 359.718L474.611 368.003H439.815L432.334 375.794C428.22 380.079 419.524 389.032 413.009 395.688L401.165 407.79H375.411C351.438 407.79 349.582 407.707 348.574 406.594C347.554 405.466 348.323 404.573 362.233 390.747L376.973 376.095L383.715 375.996C388.538 375.925 390.657 376.142 391.159 376.757C391.546 377.231 392.54 378.444 393.37 379.453C396.688 383.489 402.32 382.684 404.691 377.835C405.762 375.645 405.785 375.168 404.927 373.114C402.902 368.268 397.547 367.095 393.935 370.706C392.813 371.828 391.894 373.171 391.894 373.69C391.894 374.455 390.355 374.634 383.776 374.634H375.657L346.133 404.134L319.607 377.617C305.018 363.032 293.081 350.855 293.081 350.557C293.081 350.259 293.604 350.068 294.242 350.133C294.88 350.198 296.522 350.216 297.889 350.175L300.376 350.098V324.237H285.297L284.977 329.229C284.718 333.268 284.363 334.533 283.116 335.86C281.704 337.363 281.091 337.499 275.723 337.499H269.87V318.932H277.087C283.404 318.932 284.343 318.787 284.607 317.771C284.872 316.751 285.65 316.637 291.02 316.824L297.13 317.038L305.735 325.692ZM314.159 323.854C314.263 327.711 314.114 330.867 313.828 330.866C313.108 330.864 299.615 317.262 299.974 316.902C300.134 316.741 303.349 316.662 307.118 316.725L313.971 316.84L314.159 323.854ZM452.244 319.037C453.573 319.218 454.121 319.92 455.009 322.579C456.707 327.663 456.628 327.957 453.644 327.673C452.225 327.538 450.434 327.764 449.665 328.176C448.287 328.913 448.265 328.826 448.265 322.831C448.265 317.074 448.329 316.794 449.425 317.774C450.063 318.344 451.332 318.912 452.244 319.037ZM217.162 319.977C222.941 322.719 222.867 334.158 217.054 336.586C215.814 337.104 212.565 337.499 209.542 337.499H204.215V318.932H209.586C213.104 318.932 215.718 319.292 217.162 319.977ZM392.54 319.429C392.519 319.995 388.068 324.9 387.575 324.9C387.397 324.9 387.252 323.557 387.252 321.916V318.932H389.905C391.364 318.932 392.55 319.155 392.54 319.429ZM456.274 330.817C457.34 331.883 458.212 333.212 458.212 333.77C458.212 339.03 450.717 341.209 448.916 336.473C447.825 333.603 448.158 331.711 450.012 330.253C452.391 328.382 453.982 328.525 456.274 330.817ZM366.694 349.104C366.694 349.96 368.868 350.098 382.278 350.098C390.85 350.098 397.863 350.337 397.863 350.629C397.863 352.532 395.887 352.751 378.7 352.751H361.128L363.378 350.43C365.822 347.908 366.694 347.56 366.694 349.104ZM402.457 372.403C404.194 374.611 404.204 376.637 402.487 378.479C399.207 382 394.406 380.406 394.006 375.664C393.726 372.347 395.272 370.655 398.581 370.655C400.494 370.655 401.406 371.066 402.457 372.403ZM497.549 384.68C499.518 385.716 499.97 386.53 499.982 389.057C499.988 390.339 499.455 391.749 498.666 392.538C497.34 393.864 493.751 394.326 492.3 393.357C491.243 392.652 490.045 390.177 490.045 388.7C490.045 386.947 492.993 383.918 494.699 383.918C495.469 383.918 496.752 384.26 497.549 384.68ZM312.555 391.26C314.591 392.861 314.909 396.02 313.27 398.358C311.724 400.567 307.563 400.416 305.73 398.085C303.87 395.722 304.001 393.466 306.11 391.512C308.255 389.524 310.249 389.447 312.555 391.26ZM101.915 419.569C100.91 420.192 99.9426 421.155 99.7676 421.708C99.3703 422.959 98.4631 423.525 88.4518 428.763C84.0111 431.087 79.6879 432.989 78.8443 432.989C76.9244 432.989 72.9062 434.41 72.9062 435.088C72.9062 435.505 77.3097 443.988 77.9729 444.849C78.4802 445.508 82.3631 443.232 82.8313 442.001C83.5363 440.146 100.908 430.911 104.093 430.698C106.72 430.522 109.569 429.221 109.256 428.341C108.672 426.701 104.361 418.474 104.076 418.456C103.893 418.444 102.921 418.946 101.915 419.569ZM532.08 421.203C531.028 422.015 529.796 423.134 529.344 423.69C528.301 424.969 520.551 438.068 520.551 438.55C520.551 439.276 523.592 440.516 525.539 440.583C528.323 440.68 545.662 450.784 546.136 452.587C546.458 453.813 550.775 456.802 551.267 456.139C551.985 455.167 557.026 446.282 557.026 445.987C557.026 445.213 553.078 443.628 552.092 444.006C550.804 444.5 548.467 443.894 546.846 442.643C545.672 441.739 545.708 441.585 547.685 439.126C551.896 433.887 551.695 428.949 547.102 424.8C541.49 419.731 535.764 418.36 532.08 421.203ZM468.602 422.123C469.622 423.679 469.638 424.038 468.758 425.605C467.997 426.961 467.269 427.352 465.507 427.352C463.745 427.352 463.018 426.961 462.256 425.605C461.376 424.038 461.392 423.679 462.412 422.123C463.213 420.901 464.126 420.389 465.507 420.389C466.888 420.389 467.802 420.901 468.602 422.123ZM538.666 428.43C541.074 429.67 543.099 431.82 543.099 433.137C543.099 434.847 541.243 438.294 540.322 438.294C539.408 438.294 531.162 433.53 531.162 433.002C531.162 432.796 532.079 431.515 533.2 430.156C535.359 427.536 536.333 427.228 538.666 428.43ZM354.624 435.774C355.751 436.9 355.611 439.997 354.378 441.231C351.104 444.503 346.114 439.625 349.222 436.191C350.468 434.814 353.435 434.585 354.624 435.774ZM109.214 440.687C106.387 442.674 104.076 444.469 104.076 444.676C104.076 444.985 104.788 446.105 107.102 449.437C107.179 449.548 108.246 449.026 109.472 448.279C112.095 446.679 112.702 446.619 114.31 447.794C115.402 448.593 114.658 449.276 106.371 455.089C100.542 459.178 96.6069 461.504 95.5126 461.506C94.5682 461.508 92.9687 462.179 91.9567 462.998L90.1177 464.487L93.283 468.949C95.0245 471.403 96.6831 473.417 96.9696 473.425C98.1819 473.458 100.76 471.204 100.76 470.11C100.76 469.36 103.265 467.143 107.557 464.094C111.296 461.439 115.533 458.427 116.972 457.4C120.194 455.104 120.655 455.083 120.655 457.23C120.655 458.283 119.869 459.643 118.58 460.821L116.505 462.716L118.033 464.927C118.874 466.144 119.662 467.267 119.784 467.423C119.946 467.63 127.128 462.958 130.485 460.46C130.603 460.372 129.681 458.856 128.437 457.089C127.192 455.323 123.552 450.147 120.349 445.588C117.144 441.029 114.484 437.249 114.437 437.187C114.39 437.125 112.04 438.7 109.214 440.687ZM428.957 440.117C432.527 443.081 430.568 448.904 426 448.904C423.068 448.904 421.071 446.95 421.084 444.096C421.096 441.627 421.533 440.805 423.395 439.749C425.321 438.657 427.361 438.792 428.957 440.117ZM512.924 450.878C508.941 452.571 503.307 460.331 503.311 464.12C503.313 466.433 505.398 470.787 506.503 470.787C506.812 470.787 508.002 469.62 509.148 468.195C510.679 466.29 511.207 464.981 511.142 463.252C511.093 461.958 511.437 460.439 511.904 459.876C513.293 458.203 516.944 458.602 519.198 460.674L521.182 462.498L511.317 474.824L515.513 478.383C524.856 486.308 529.276 486.644 535.141 479.873C537.547 477.095 539.784 472.721 539.78 470.797C539.776 467.849 537.381 465.053 529.377 458.652C518.951 450.315 516.724 449.262 512.924 450.878ZM529.144 468.694C532.123 471.529 532.505 473.423 530.499 475.428C528.78 477.147 527.228 477.104 524.525 475.263C520.88 472.781 520.717 471.99 523.21 468.889C524.422 467.38 525.651 466.145 525.939 466.145C526.228 466.145 527.67 467.292 529.144 468.694ZM490.376 476.52C488.917 477.832 484.627 481.869 480.843 485.491L473.962 492.076L475.487 493.699C476.326 494.591 477.528 495.322 478.159 495.322C479.63 495.322 493.916 510.247 494.44 512.331C494.657 513.198 494.516 514.29 494.128 514.759C493.606 515.388 493.824 516.082 494.96 517.403C495.806 518.388 496.802 519.195 497.174 519.195C497.545 519.195 498.928 518 500.247 516.54C504.188 512.177 503.362 509.244 496.013 501.514C493.642 499.02 490.236 495.404 488.442 493.478L485.182 489.976L487.412 487.676C488.638 486.41 489.922 485.375 490.264 485.375C490.607 485.375 491.63 486.196 492.538 487.199C493.445 488.202 496.837 491.743 500.075 495.067C504.248 499.353 505.961 501.587 505.961 502.743C505.961 503.64 506.703 505.072 507.611 505.924L509.26 507.474L512.833 504.217C514.798 502.425 516.604 500.531 516.846 500.008C517.388 498.838 515.308 496.652 512.741 495.694C509.898 494.634 496.676 480.546 496.676 478.579C496.676 477.245 494.283 474.066 493.318 474.118C493.159 474.126 491.835 475.207 490.376 476.52ZM121.352 481.029L119.828 482.651L122.975 486.334C124.706 488.36 126.367 490.017 126.667 490.017C126.967 490.017 128.05 489.29 129.073 488.401L130.934 486.784L127.309 483.096C125.316 481.067 123.503 479.407 123.28 479.407C123.058 479.407 122.19 480.137 121.352 481.029ZM146.914 485.835C143.385 490.085 143.278 490.327 144.37 491.533C146.68 494.086 147.834 494.255 149.84 492.333C151.198 491.032 152.084 490.674 153.126 491.004C153.911 491.253 154.461 491.848 154.349 492.326C154.237 492.805 150.863 496.978 146.85 501.6C142.117 507.052 138.973 510.124 137.898 510.347C136.986 510.535 135.667 511.458 134.966 512.398L133.692 514.107L142.208 521.745L143.7 520.354C144.521 519.589 145.193 518.309 145.193 517.511C145.193 516.712 145.848 515.197 146.648 514.145C148.824 511.284 159.349 499.042 160.113 498.483C162.366 496.833 163.165 500.76 161.037 503.025L159.529 504.629L161.811 506.58C163.066 507.653 164.258 508.543 164.459 508.557C164.659 508.573 166.518 506.526 168.588 504.009L172.352 499.434L162.047 490.415C156.378 485.455 151.484 481.397 151.17 481.397C150.855 481.397 148.94 483.394 146.914 485.835ZM458.253 504.059C452.049 508.512 450.537 509.94 449.466 512.359C446.84 518.296 451.155 525.826 457.184 525.826C459.016 525.826 459.265 526.51 458.176 528.545C457.617 529.59 457.883 530.558 459.503 533.389C460.617 535.336 461.529 537.489 461.531 538.174C461.533 538.859 462.205 540.247 463.024 541.258L464.512 543.096L467.828 540.73C469.652 539.429 471.25 538.061 471.379 537.69C471.508 537.318 470.24 534.948 468.56 532.423C464.916 526.942 464.727 525.145 467.58 523.114L469.654 521.637L470.917 523.234C472.965 525.821 474.249 528.533 473.882 529.49C473.693 529.982 474.175 531.223 474.952 532.249C475.729 533.275 476.438 534.219 476.528 534.346C476.618 534.474 478.726 533.149 481.213 531.403C483.699 529.658 485.835 528.16 485.958 528.074C486.418 527.757 483.134 523.836 482.409 523.836C481.268 523.836 479.387 521.59 473.527 513.226C470.588 509.032 468.178 504.936 468.172 504.124C468.165 503.313 467.617 501.756 466.954 500.665L465.747 498.682L458.253 504.059ZM178.058 507.406C177.49 508.217 177.025 509.657 177.025 510.607C177.025 512.952 165.345 531.131 163.838 531.131C162.515 531.131 160.046 534.989 160.87 535.77C161.184 536.068 165.898 539.165 171.348 542.652L181.254 548.993L184.445 544.063C186.2 541.351 187.634 538.899 187.631 538.613C187.629 538.328 186.387 537.302 184.873 536.334L182.12 534.575L180.021 536.8C177.692 539.271 176.437 539.287 173.51 536.887L171.747 535.441L174.012 531.891C175.258 529.938 176.423 528.196 176.6 528.019C176.777 527.842 178.059 528.47 179.448 529.414C182.671 531.604 183.11 531.573 184.601 529.049C185.827 526.973 185.826 526.962 184.247 525.744C183.375 525.071 182.139 524.347 181.502 524.134C180.864 523.921 180.341 523.299 180.341 522.751C180.341 521.092 184.319 515.804 185.19 516.305C188.798 518.385 189.737 519.444 189.45 521.108C189.285 522.061 188.956 523.289 188.72 523.836C188.087 525.304 194.139 529.07 195.009 527.751C198.462 522.517 200.311 518.982 199.781 518.627C199.43 518.392 196.331 516.414 192.892 514.231C189.454 512.049 185.156 509.288 183.34 508.097C181.525 506.906 179.826 505.932 179.565 505.932C179.304 505.932 178.625 506.595 178.058 507.406ZM463.683 512.88C465.052 514.85 466.17 516.744 466.17 517.089C466.17 518.173 462.985 519.858 460.937 519.858C458.547 519.858 456.223 517.221 456.223 514.512C456.223 513.213 456.867 512.152 458.378 510.961C459.564 510.027 460.683 509.27 460.865 509.28C461.047 509.29 462.316 510.91 463.683 512.88ZM430.027 521.55C427.839 522.799 425.766 523.918 425.419 524.037C424.542 524.342 426.342 528.478 427.352 528.478C428.491 528.478 430.359 530.682 430.359 532.026C430.359 533.594 427.525 543.067 427.055 543.067C426.136 543.067 421.745 532.982 422.065 531.604C422.265 530.743 421.909 529.499 421.205 528.597L420.003 527.059L415.547 529.187C413.096 530.358 410.921 531.59 410.713 531.927C410.081 532.948 411.736 536.097 413.267 536.784C415.271 537.684 424.343 554.628 424.37 557.523C424.381 558.726 424.855 560.609 425.423 561.707L426.455 563.704L430.894 561.282C433.335 559.95 435.582 558.624 435.886 558.334C436.715 557.547 434.587 553.897 433.068 553.5C430.895 552.932 430.674 550.061 432.386 544.604C433.238 541.89 434.114 539.558 434.333 539.423C435.167 538.907 439.775 549.084 439.394 550.602C439.078 551.859 439.602 553.182 441.352 555.551C441.44 555.67 443.764 554.531 446.515 553.021L451.518 550.276L450.447 548.03C449.857 546.794 448.794 545.694 448.084 545.585C446.256 545.306 436.165 526.138 436.683 523.932C437.038 522.427 435.504 519.147 434.488 519.238C434.223 519.262 432.216 520.302 430.027 521.55ZM207.2 525.163C206.425 526.661 206.332 527.773 206.801 529.951C207.137 531.511 207.61 534.877 207.853 537.43L208.294 542.072L202.311 546.217C199.019 548.497 196.068 550.361 195.752 550.361C195.183 550.361 192.704 554.993 193.079 555.355C193.614 555.874 201.177 558.982 201.905 558.982C202.367 558.982 202.931 558.241 203.158 557.336C203.672 555.29 207.346 551.024 208.595 551.024C209.964 551.024 209.746 555.439 208.209 558.823L206.927 561.648L211.3 563.63C213.705 564.721 215.865 565.613 216.099 565.613C217.264 565.613 218.025 561.345 217.494 557.783C217.186 555.707 216.743 552.153 216.512 549.885L216.091 545.762L220.267 542.676C222.563 540.979 225.395 539.132 226.56 538.571C228.526 537.625 230.723 534.206 229.896 533.379C229.697 533.18 227.73 532.164 225.527 531.122C221.594 529.262 221.512 529.252 221.089 530.584C220.592 532.153 216.281 537.099 215.412 537.099C214.476 537.099 214.735 532.633 215.821 530.034C216.368 528.724 216.816 527.547 216.816 527.416C216.816 527.122 212.039 524.668 209.837 523.83C208.418 523.291 208.079 523.462 207.2 525.163ZM390.9 538.036C380.343 541.476 380.29 541.503 380.43 543.397C380.51 544.467 381.28 545.899 382.191 546.67C384.246 548.409 390.223 566.839 389.655 569.682C389.209 571.913 390.439 575.75 391.476 575.357C391.889 575.201 394.39 574.378 397.034 573.528C400.288 572.482 401.84 571.65 401.833 570.953C401.812 568.606 400.963 567.002 399.64 566.811C398.45 566.638 397.691 564.92 394.641 555.483C392.664 549.364 391.212 544.192 391.415 543.988C391.619 543.785 392.973 543.459 394.426 543.265C397.113 542.904 397.23 542.987 399.563 546.901C399.755 547.225 405.821 545.463 405.817 545.085C405.803 543.69 402.682 534.85 402.161 534.729C401.803 534.646 396.736 536.134 390.9 538.036ZM238.122 538.469C237.638 539.855 237.614 540.95 238.049 541.763C238.982 543.506 233.243 563.516 231.36 565.087C229.95 566.263 228.515 570.036 229.299 570.506C229.826 570.823 239.006 573.571 239.536 573.571C240.329 573.571 241.283 569.407 240.914 567.563C240.591 565.947 241.536 560.607 242.452 558.876C242.683 558.441 248.601 559.791 249.855 560.565C250.845 561.177 248.357 568.741 246.717 570.103C245.958 570.734 245.168 572.145 244.962 573.239L244.587 575.228L250.032 576.732C253.027 577.559 255.654 578.059 255.87 577.843C256.086 577.627 256.304 575.458 256.354 573.024C256.414 570.132 257.279 565.723 258.849 560.308C261.766 550.252 262.271 549.035 263.525 549.035C264.391 549.035 265.834 544.671 265.141 544.145C264.249 543.465 254.442 541.032 254.076 541.399C253.826 541.649 253.615 543.693 253.608 545.942C253.591 551.007 252.739 555.003 251.677 555.003C251.235 555.003 249.478 554.528 247.771 553.946C245.655 553.225 244.669 552.518 244.669 551.724C244.669 549.665 246.108 546.084 247.387 544.958C248.907 543.62 250.216 540.376 249.502 539.717C249.215 539.452 247.189 538.737 245.001 538.129C242.812 537.521 240.532 536.882 239.933 536.708C239.173 536.487 238.627 537.019 238.122 538.469ZM354.741 546.074C350.945 547.244 349.047 549.011 348.064 552.293C347.407 554.486 347.559 556.452 349.051 565.052C351.022 576.417 352.128 579.173 355.453 581.017C359.643 583.341 369.768 581.41 372.657 577.736C374.793 575.022 374.853 572.347 373.019 561.655C371.16 550.812 370.379 548.617 367.612 546.441C365.5 544.78 359.494 544.608 354.741 546.074ZM278.491 547.831C277.215 548.703 275.764 550.26 275.268 551.292C273.99 553.949 271.553 572.725 272.105 575.663C272.353 576.992 273.163 578.848 273.903 579.788C276.622 583.245 287.383 584.763 291.476 582.267C294.505 580.42 295.474 577.618 296.937 566.473C298.272 556.303 298.14 552.794 296.341 550.626C294.633 548.568 290.249 546.93 285.533 546.589C281.328 546.284 280.558 546.42 278.491 547.831ZM311.153 549.503C310.005 549.724 309.66 550.245 309.66 551.757C309.66 552.839 310.115 554.418 310.672 555.267C311.497 556.526 311.649 558.867 311.501 568.008C311.322 578.968 311.286 579.221 309.798 579.87C308.562 580.409 308.313 580.968 308.471 582.854C308.654 585.032 308.825 585.188 311.238 585.386C312.653 585.502 314.628 585.258 315.628 584.844C318.796 583.532 319.248 581.62 319.608 567.98L319.94 555.427L326.572 555.335L326.753 566.89C326.867 574.14 326.682 578.699 326.256 579.125C325.882 579.498 325.577 580.938 325.577 582.324V584.844H336.851L336.83 582.357C336.818 580.99 336.371 579.291 335.835 578.583C334.406 576.694 334.412 555.538 335.841 554.352C336.381 553.905 336.701 552.898 336.554 552.116C336.406 551.333 336.264 550.32 336.237 549.864C336.199 549.23 333.416 549.056 324.416 549.125C317.942 549.175 311.974 549.345 311.153 549.503ZM362.676 552.634C363.569 553.711 365.97 566.292 366.14 570.785C366.263 574.02 365.044 575.56 362.359 575.56C359.772 575.56 358.602 573.293 357.316 565.783C355.894 557.479 355.767 553.595 356.879 552.483C357.977 551.385 361.719 551.483 362.676 552.634ZM288.723 554.056C289.296 554.629 289.765 556.065 289.765 557.248C289.765 560.06 287.974 573.608 287.407 575.086C286.88 576.457 284.416 577.185 282.192 576.627C279.873 576.045 279.579 573.585 280.79 564.859C281.923 556.69 282.283 555.109 283.296 553.843C284.225 552.682 287.477 552.809 288.723 554.056Z" fill="#009746"/>
<path fill-rule="evenodd" clip-rule="evenodd" d="M91.4238 252.6C89.4399 253.459 84.4945 258.221 82.0946 261.583C79.8879 264.675 77.6671 268.923 77.004 271.322L76.5489 272.969L80.2997 276.178C84.6695 279.917 85.9096 281.433 88.0018 285.602C89.3289 288.246 91.9051 297.243 92.9336 302.828C93.2602 304.6 94.0469 304.726 94.0469 303.006C94.0469 301.591 96.9975 289.77 97.9457 287.385C99.7555 282.836 102.711 279.204 107.969 275.067C109.224 274.08 110.258 272.999 110.268 272.665C110.302 271.541 107.274 265.119 105.448 262.442C102.969 258.807 97.8677 253.769 95.6505 252.765C93.4668 251.777 93.3373 251.772 91.4238 252.6ZM33.6 263.963C33.6 264.16 34.7783 266.638 36.2191 269.471C40.8261 278.531 42.1086 289.003 40.5942 305.192C39.7047 314.698 39.4728 318.824 39.4688 325.21C39.4633 334.384 39.9871 338.867 41.7946 345.107C43.2453 350.116 46.1103 355.675 48.7189 358.544C58.5483 369.352 76.6138 369.151 84.9212 358.141C88.5291 353.359 89.9356 347.096 90.306 334.158C90.5992 323.915 90.0705 317.559 88.1393 308.116C85.4143 294.789 80.8063 285.593 72.8639 277.633C63.8541 268.602 51.1201 263.606 37.1077 263.606C35.1784 263.606 33.6 263.767 33.6 263.963ZM145.246 264.275C139.329 265.225 134.71 266.686 129.458 269.269C123.44 272.23 122.19 273.003 118.163 276.261C106.683 285.545 99.7519 297.952 98.0734 312.221C97.6963 315.426 97.6106 320.741 97.7996 329.244C97.9502 336.044 97.8835 343.582 97.6503 345.996C96.3344 359.631 89.9875 367.89 79.1075 370.124C77.7132 370.41 76.2286 370.895 75.8077 371.201C74.0069 372.514 78.3492 375.455 84.6551 377.195C88.1014 378.146 100.069 378.292 103.971 377.431C115.438 374.901 123.47 370.587 131.27 362.768C140.181 353.835 144.627 344.459 146.209 331.267C146.775 326.543 146.85 322.751 146.603 311.486C146.109 289.018 146.181 285.574 147.268 279.835C148.371 274.01 149.463 270.832 151.626 267.154C152.459 265.738 153.141 264.36 153.141 264.093C153.141 263.46 149.85 263.536 145.246 264.275Z" fill="#E31E24"/>
<path fill-rule="evenodd" clip-rule="evenodd" d="M183.099 277.965C182.927 278.386 182.823 280.765 182.868 283.253L182.95 287.775L184.532 289.157C185.957 290.401 186.153 290.842 186.502 293.599C187.016 297.642 187.015 330.863 186.501 334.433C186.106 337.182 184.86 339.299 183.636 339.299C182.915 339.299 182.346 348.274 182.963 349.906L183.417 351.106L197.678 351.099C213.874 351.091 220.013 350.698 225.653 349.308C229.4 348.384 229.722 348.209 232.159 345.767C235.027 342.894 236.3 340.604 236.952 337.146C237.599 333.718 237.48 325.945 236.732 322.755C235.787 318.728 232.568 314.395 229.453 312.96C228.065 312.32 227.897 311.484 229.083 311.106C231.232 310.42 233.441 308.213 234.844 305.349C236.234 302.511 236.29 302.199 236.275 297.342C236.262 293.289 236.07 291.751 235.307 289.579C233.7 285.004 230.748 281.403 227.604 280.179C221.051 277.628 217.075 277.219 198.763 277.208C184.547 277.2 183.388 277.256 183.099 277.965ZM248.713 288.351L249.984 289.079C250.828 289.561 251.412 290.371 251.72 291.484C252.354 293.779 252.354 334.09 251.72 336.385C251.412 337.498 250.828 338.308 249.984 338.79L248.713 339.517L248.707 351.113L300.704 350.887L300.82 337.798C300.909 327.617 300.813 324.63 300.385 324.357C300.082 324.164 296.482 324.003 292.385 323.999L284.936 323.993L284.738 328.475C284.624 331.048 284.276 333.509 283.92 334.253C282.575 337.063 278.822 338.256 272.421 337.909L269.811 337.768L269.576 319.182H284.387V307.024L269.593 306.388V290.188L274.872 290.488C277.776 290.653 280.562 291.009 281.064 291.279C283.318 292.491 284.733 295.575 284.789 299.394L284.822 301.69H292.629C296.923 301.69 300.523 301.542 300.63 301.362C300.737 301.181 300.721 295.671 300.593 289.117L300.361 277.2H248.707L248.713 288.351ZM313.649 277.521L310.06 277.673L310.066 282.575C310.073 287.643 310.205 288.228 311.449 288.688C311.853 288.838 312.539 289.503 312.971 290.167C313.699 291.282 313.768 293 313.883 313.04C314.023 337.115 313.962 337.73 311.313 339.107L310.034 339.772L310.277 350.887H358.141V319.838L343.209 319.599L343.06 326.06C342.93 331.732 342.79 332.769 341.913 334.558C340.659 337.116 338.751 337.987 334.4 337.987H331.345L331.472 314.481C331.608 289.181 331.563 289.662 333.873 288.605C334.867 288.149 334.886 288.026 334.766 282.779L334.644 277.419L325.942 277.394C321.155 277.381 315.624 277.437 313.649 277.521ZM366.626 282.834C366.626 287.999 366.694 288.486 367.452 288.685C367.906 288.805 368.64 289.458 369.083 290.138C369.841 291.301 369.889 292.712 369.889 313.934C369.889 334.551 369.825 336.594 369.139 337.645C368.727 338.277 367.992 338.922 367.508 339.076C366.68 339.341 366.626 339.716 366.626 345.235V351.113L418.188 350.887V324.211L402.868 323.973L402.633 328.258C402.388 332.735 401.708 335.056 400.263 336.348C399.096 337.392 395.208 338.05 391.12 337.896L387.729 337.768L387.494 319.182H402.741V306.5H387.512V290.186L392.569 290.476C397.97 290.786 399.818 291.367 401.117 293.16C401.937 294.292 402.741 297.788 402.741 300.218V301.69H418.405V277.779L405.025 277.49C397.666 277.331 386.016 277.201 379.135 277.201L366.626 277.2V282.834ZM428.419 288.351L429.69 289.079C430.534 289.561 431.118 290.371 431.426 291.484C431.725 292.567 431.89 300.827 431.892 314.768L431.894 336.373L430.784 337.836C430.174 338.64 429.39 339.299 429.044 339.299C428.524 339.299 428.413 340.339 428.413 345.209V351.12L452.127 350.887L452.249 345.089C452.369 339.328 452.364 339.288 451.318 338.809C448.972 337.736 448.228 334.042 448.661 325.635C448.85 321.966 448.984 315.421 448.958 311.092C448.903 301.974 449.022 301.998 451.753 311.644C452.62 314.708 453.686 318.198 454.122 319.401C455.396 322.917 456.696 327.39 456.696 328.26C456.696 328.703 456.862 329.252 457.064 329.481C457.267 329.709 457.784 331.471 458.212 333.395C459.297 338.265 459.485 338.424 464.161 338.424C467.175 338.424 468.009 338.291 468.009 337.81C468.009 337.472 468.899 334.373 469.987 330.922C471.074 327.472 472.372 323.271 472.87 321.587C473.368 319.904 473.928 318.133 474.114 317.651C474.3 317.17 475.384 313.727 476.524 309.999C477.663 306.27 478.659 303.141 478.735 303.045C479.114 302.566 478.825 334.846 478.437 336.294C478.183 337.243 477.442 338.375 476.687 338.969L475.378 339.999L475.624 350.887H499.556L499.8 339.724L498.72 339.312C498.126 339.085 497.288 338.251 496.857 337.459C496.139 336.136 496.065 334.234 495.95 314.19C495.813 290.103 495.806 290.172 498.501 288.771L499.8 288.097L499.556 277.419L486.555 277.303C478.234 277.228 473.362 277.346 473.022 277.63C472.729 277.874 472.152 279.402 471.738 281.026C470.533 285.758 467.204 298.085 466.039 302.127C465.45 304.171 464.82 306.592 464.638 307.506C464.457 308.421 464.113 309.135 463.874 309.094C463.636 309.053 463.012 307.419 462.489 305.464C461.965 303.508 460.533 298.268 459.306 293.818C458.079 289.368 456.644 284.055 456.118 282.01C455.593 279.966 455.006 278.047 454.816 277.747C454.551 277.329 451.389 277.2 441.441 277.2H428.413L428.419 288.351ZM216.342 291.877C218.816 293.736 219.283 294.827 219.311 298.812C219.354 305.054 217.593 306.425 209.303 306.605L204.107 306.719L203.87 290.687L209.506 290.831C214.384 290.956 215.304 291.097 216.342 291.877ZM214.952 319.601C218.753 320.487 220.568 323.235 220.599 328.151C220.613 330.563 220.389 331.676 219.542 333.376C217.911 336.649 216.328 337.293 209.437 337.483L203.89 337.637V319.182L208.567 319.193C211.14 319.198 214.013 319.382 214.952 319.601Z" fill="#E31E24"/>
</svg>
