<svg width="30" height="30" viewBox="0 0 30 30" fill="none" xmlns="http://www.w3.org/2000/svg">
<path d="M15 30C6.72909 30 0 23.2709 0 15C0 6.72909 6.72909 0 15 0C23.2709 0 30 6.72909 30 15C30 23.2709 23.2709 30 15 30ZM15 2.30769C8.00481 2.30769 2.30769 8.00481 2.30769 15C2.30769 21.9952 8.00481 27.6923 15 27.6923C21.9952 27.6923 27.6923 21.9988 27.6923 15C27.6923 8.0012 21.9988 2.30769 15 2.30769Z" fill="white"/>
<path d="M19.8801 17.5962C18.6252 17.5962 17.413 17.0394 16.4661 16.0291C15.5295 15.0132 14.9696 13.7069 14.8796 12.3281C14.7736 10.8353 15.2315 9.46154 16.169 8.4613C17.1065 7.46106 18.4168 6.92308 19.8801 6.92308C21.3325 6.92308 22.6471 7.4726 23.5817 8.47067C24.5163 9.46875 24.9858 10.8505 24.8798 12.3296C24.7881 13.7075 24.2284 15.0128 23.2933 16.0291C22.3457 17.0394 21.1341 17.5962 19.8801 17.5962ZM8.3524 17.8385C6.20625 17.8385 4.31899 15.8546 4.14591 13.4156C4.05721 12.1666 4.44519 11.012 5.2399 10.1647C6.03462 9.31731 7.13077 8.86659 8.35168 8.86659C9.5726 8.86659 10.668 9.33101 11.4577 10.1748C12.2474 11.0185 12.6476 12.181 12.5575 13.42C12.3815 15.8553 10.495 17.8385 8.3524 17.8385ZM26.8536 22.1596C26.7389 21.8207 26.4599 21.4594 25.9002 21.1168C24.2084 20.0834 22.1272 19.5368 19.8801 19.5368C17.6755 19.5368 15.5365 20.1065 13.8562 21.1413C11.9632 22.3075 10.6911 24.0079 10.1784 26.0582C10.0572 26.5406 9.88053 27.4385 10.0695 27.9411C13.1016 29.0941 16.442 29.147 19.5091 28.0906C22.5762 27.0341 25.1748 24.9353 26.8536 22.1596ZM8.3387 25.4834C8.84856 23.449 9.9339 21.7529 11.6178 20.3812C11.6974 20.3156 11.7579 20.2298 11.7931 20.1327C11.8282 20.0357 11.8367 19.931 11.8176 19.8296C11.7986 19.7282 11.7526 19.6337 11.6846 19.5561C11.6166 19.4785 11.529 19.4205 11.431 19.3882C10.5656 19.112 9.57764 18.9642 8.3524 18.9642C6.63462 18.9642 4.81082 19.4293 3.43846 20.2745C3.04904 20.5147 2.66683 20.607 2.3726 20.6892C3.5539 23.3001 5.51292 25.4822 7.98173 26.9373L8.11082 26.9272C8.13905 26.4396 8.21538 25.956 8.3387 25.4834Z" fill="white"/>
</svg>
