<svg width="30" height="30" viewBox="0 0 30 30" fill="none" xmlns="http://www.w3.org/2000/svg">
<path d="M13.4483 5.35714C13.4483 6.77795 12.9033 8.14056 11.9333 9.14521C10.9633 10.1499 9.64767 10.7143 8.27586 10.7143C6.90405 10.7143 5.58843 10.1499 4.61841 9.14521C3.6484 8.14056 3.10345 6.77795 3.10345 5.35714C3.10345 3.93634 3.6484 2.57373 4.61841 1.56907C5.58843 0.564412 6.90405 0 8.27586 0C9.64767 0 10.9633 0.564412 11.9333 1.56907C12.9033 2.57373 13.4483 3.93634 13.4483 5.35714V5.35714ZM20.6897 8.57143C19.584 8.57057 18.4842 8.7366 17.4248 9.06429C16.9484 8.43119 16.6533 7.67227 16.573 6.87393C16.4927 6.0756 16.6304 5.26996 16.9706 4.54875C17.3107 3.82754 17.8396 3.21976 18.4969 2.79462C19.1542 2.36949 19.9136 2.14408 20.6886 2.14408C21.4636 2.14408 22.223 2.36949 22.8803 2.79462C23.5377 3.21976 24.0665 3.82754 24.4067 4.54875C24.7468 5.26996 24.8846 6.0756 24.8043 6.87393C24.724 7.67227 24.4288 8.43119 23.9524 9.06429C22.8937 8.73681 21.7946 8.57078 20.6897 8.57143V8.57143ZM3.10345 12.8571H11.911C10.2263 14.9666 9.30632 17.6195 9.31034 20.3571C9.31034 21.0729 9.37241 21.7714 9.49034 22.4507C9.08632 22.484 8.68116 22.5005 8.27586 22.5C0 22.5 0 16.2321 0 16.2321V16.0714C0 15.2189 0.32697 14.4014 0.908979 13.7986C1.49099 13.1958 2.28036 12.8571 3.10345 12.8571V12.8571ZM30 20.3571C30 22.9146 29.0191 25.3673 27.2731 27.1757C25.527 28.9841 23.1589 30 20.6897 30C18.2204 30 15.8523 28.9841 14.1062 27.1757C12.3602 25.3673 11.3793 22.9146 11.3793 20.3571C11.3793 17.7997 12.3602 15.347 14.1062 13.5386C15.8523 11.7302 18.2204 10.7143 20.6897 10.7143C23.1589 10.7143 25.527 11.7302 27.2731 13.5386C29.0191 15.347 30 17.7997 30 20.3571V20.3571ZM25.56 16.3843C25.4639 16.2845 25.3497 16.2053 25.2241 16.1513C25.0984 16.0973 24.9637 16.0695 24.8276 16.0695C24.6915 16.0695 24.5568 16.0973 24.4311 16.1513C24.3054 16.2053 24.1913 16.2845 24.0952 16.3843L18.6207 22.0564L17.2841 20.67C17.0899 20.4688 16.8264 20.3558 16.5517 20.3558C16.277 20.3558 16.0136 20.4688 15.8193 20.67C15.6251 20.8712 15.5159 21.1441 15.5159 21.4286C15.5159 21.7131 15.6251 21.986 15.8193 22.1871L17.8883 24.33C17.9844 24.4298 18.0985 24.5089 18.2242 24.563C18.3499 24.617 18.4846 24.6448 18.6207 24.6448C18.7568 24.6448 18.8915 24.617 19.0172 24.563C19.1429 24.5089 19.257 24.4298 19.3531 24.33L25.56 17.9014C25.6563 17.8019 25.7328 17.6837 25.7849 17.5535C25.8371 17.4233 25.8639 17.2838 25.8639 17.1429C25.8639 17.0019 25.8371 16.8624 25.7849 16.7322C25.7328 16.602 25.6563 16.4838 25.56 16.3843V16.3843Z" fill="white"/>
</svg>
