<svg width="30" height="30" viewBox="0 0 30 30" fill="none" xmlns="http://www.w3.org/2000/svg">
<path d="M4.28571 4.28571C4.28571 3.14907 4.73724 2.05898 5.54097 1.25526C6.3447 0.451529 7.43479 0 8.57143 0C9.70807 0 10.7982 0.451529 11.6019 1.25526C12.4056 2.05898 12.8571 3.14907 12.8571 4.28571C12.8571 5.42236 12.4056 6.51244 11.6019 7.31617C10.7982 8.1199 9.70807 8.57143 8.57143 8.57143C7.43479 8.57143 6.3447 8.1199 5.54097 7.31617C4.73724 6.51244 4.28571 5.42236 4.28571 4.28571V4.28571ZM18.8121 7.68L18.9021 7.74857C19.8113 8.42251 20.9502 8.70947 22.0702 8.54681C23.1902 8.38415 24.2004 7.78509 24.8803 6.88036C25.5602 5.97563 25.8547 4.83868 25.6994 3.71764C25.5442 2.5966 24.9518 1.58248 24.0516 0.896597C23.1513 0.210712 22.0164 -0.0912502 20.8943 0.0566081C19.7723 0.204466 18.7543 0.790141 18.0625 1.68582C17.3707 2.58149 17.0612 3.71445 17.2017 4.83745C17.3421 5.96044 17.9211 6.98229 18.8121 7.68V7.68ZM11.2886 10.7143C11.5577 10.2046 11.9269 9.75451 12.374 9.39084C12.8212 9.02716 13.337 8.75741 13.8908 8.59772C14.4446 8.43803 15.0249 8.39168 15.597 8.46144C16.1692 8.5312 16.7213 8.71565 17.2205 9.00374C17.7197 9.29183 18.1556 9.67765 18.5023 10.1381C18.8489 10.5986 19.0991 11.1242 19.2379 11.6836C19.3767 12.243 19.4012 12.8247 19.31 13.3938C19.2188 13.9628 19.0138 14.5077 18.7071 14.9957C18.1172 15.9346 17.1865 16.6082 16.1103 16.8752C15.0341 17.1422 13.8964 16.9818 12.9361 16.4275C11.9757 15.8733 11.2676 14.9685 10.9604 13.9031C10.6531 12.8377 10.7708 11.6947 11.2886 10.7143V10.7143ZM3.21429 10.7143H8.93571C8.55487 11.8019 8.47206 12.9716 8.69589 14.1021C8.91971 15.2325 9.44201 16.2824 10.2086 17.1429H9.64286C8.53808 17.1427 7.46025 17.484 6.55689 18.12C5.65354 18.756 4.96881 19.6556 4.59643 20.6957C3.87714 20.4068 3.20367 20.0148 2.59714 19.5321C0.985714 18.2357 0 16.32 0 13.9286C0 13.0761 0.338647 12.2585 0.941443 11.6557C1.54424 11.0529 2.3618 10.7143 3.21429 10.7143V10.7143ZM20.3571 17.1429C21.4616 17.1428 22.5391 17.4842 23.4421 18.1202C24.3451 18.7562 25.0294 19.6558 25.4014 20.6957C26.13 20.3979 26.805 20.01 27.4029 19.5321C29.0143 18.2357 30 16.32 30 13.9286C30 13.0761 29.6614 12.2585 29.0586 11.6557C28.4558 11.0529 27.6382 10.7143 26.7857 10.7143H21.0643C21.3 11.385 21.4286 12.1071 21.4286 12.8571C21.4306 14.4388 20.8474 15.9653 19.7914 17.1429H20.3571ZM23.3293 21.2743C23.4857 21.6514 23.5714 22.0671 23.5714 22.5C23.5714 24.8914 22.5879 26.8071 20.9743 28.1036C19.3864 29.3786 17.2564 30 15 30C12.7436 30 10.6136 29.3786 9.02571 28.1036C7.41429 26.8071 6.42857 24.8914 6.42857 22.5C6.42744 22.0776 6.50981 21.6591 6.67094 21.2686C6.83207 20.8781 7.06879 20.5233 7.36749 20.2246C7.66619 19.9259 8.02098 19.6892 8.41147 19.5281C8.80195 19.367 9.22043 19.2846 9.64286 19.2857H20.3571C20.9938 19.2856 21.6161 19.4745 22.1453 19.8285C22.6744 20.1825 23.0865 20.6857 23.3293 21.2743Z" fill="white"/>
</svg>
